<svg xmlns="http://www.w3.org/2000/svg" viewBox="0 0 145 145">
    <path d="M98.5 85.9c-1.2-.6-5.1-2.4-8.6-4l-2.2-1c-1.6-.7-4.1-2.7-6.6-5.2 0 0-.1-.1-.1 0v-.4-1c0-.1.1-.3.1-.5.5-.8.9-1.8 1.2-2.7.2-.5.5-1.3.6-1.4 1.7-1.7 3.4-3.8 4-6.6.5-2.8-.1-4.3-.5-5 0-2.8-.1-5.6-.6-7.9-.1-3.2-.7-5.1-2.1-6.7-1.1-1.2-2.6-1.5-3.8-1.7-.4-.1-.9-.2-1.1-.3-2-1.2-3.8-1.7-6-1.8h-1.1c-5.8.4-11.2 4.4-13 9.8-.6 1.8-.6 4.4-.5 7.4V58c-.4.8-1.1 2.2-.5 5 .5 2.8 2.3 4.9 3.9 6.6.2.2.4 1 .6 1.5.3.9.7 1.9 1.2 2.7 0 .1 0 .3.1.3.1.4.1.4.1 1.2v.2c-2.5 2.6-5 4.6-6.7 5.3l-2.2 1c-4.3 2-7.5 3.4-8.6 4-4.5 2.4-6.1 4.1-6.1 6.2v6c0 1 .6 2 1.5 2.4.4.2 10.5 4.3 31 4.3s30.5-4.1 31-4.3c.9-.4 1.5-1.3 1.5-2.4v-5.9c-.4-2.1-2-3.7-6.5-6.2z"/>
    <path d="M36.1 92.1c0-3.8 3.3-6.2 8-8.7 1.1-.6 4.3-1.9 9.1-4.1l1.7-.8-1.2-.5c-1.1-.5-2.7-1.8-4.4-3.5h-.1v-.3-.6c0-.1 0-.2.1-.3.4-.5.6-1.2.8-1.8.1-.3.3-.8.4-1 1.1-1.1 2.3-2.6 2.6-4.4.4-1.9-.1-2.8-.3-3.4 0-1.9-.1-3.8-.4-5.2 0-2.1-.4-3.4-1.4-4.5-.7-.8-1.7-1-2.5-1.1-.2 0-.6-.1-.7-.2-1.3-.8-2.5-1.1-4-1.2H43c-3.9.2-7.4 2.9-8.7 6.6-.4 1.2-.4 2.9-.4 4.9v.7c-.2.5-.7 1.5-.3 3.3.4 1.9 1.5 3.3 2.6 4.4.1.1.3.6.4 1 .2.6.4 1.2.8 1.8v1.1c-1.7 1.7-3.4 3-4.5 3.5l-1.5.7c-2.9 1.3-5 2.3-5.7 2.6-3 1.6-4.1 2.7-4.1 4.1v3.9c0 .7.4 1.3 1 1.6.2.1 4.6 1.9 13.4 2.6v-1.2zM118.6 81.3c-.8-.4-3.4-1.6-5.8-2.7l-1.4-.7c-1.1-.5-2.7-1.8-4.4-3.5h-.1v-.3-.6c0-.1 0-.2.1-.3.4-.6.6-1.2.8-1.8.1-.3.3-.8.4-1 1.1-1.1 2.3-2.6 2.6-4.4.4-1.9-.1-2.8-.3-3.4 0-1.9-.1-3.8-.4-5.2 0-2.1-.4-3.4-1.4-4.5-.7-.8-1.7-1-2.5-1.1-.2 0-.6-.1-.7-.2-1.3-.8-2.5-1.1-4-1.2h-.8c-3.9.2-7.4 2.9-8.7 6.6-.4 1.2-.4 2.9-.4 4.9v.7c-.2.5-.7 1.5-.3 3.3.4 1.9 1.5 3.3 2.6 4.4.1.1.3.6.4 1 .2.6.5 1.2.8 1.8v1.1c-1.7 1.7-3.4 3-4.5 3.5l-1.3.6 1.5.7c4.4 2 7.4 3.4 8.5 4.1 3.7 2 7.3 4.5 7.3 8.7v1.5c9.8-.6 14.6-2.6 14.9-2.7.6-.3 1-.9 1-1.6v-3.9c.2-1-.9-2.1-3.9-3.8z"/>
    <path d="M72.2 0C32.4 0 0 32.4 0 72.2s32.4 72.2 72.2 72.2 72.2-32.4 72.2-72.2S112 0 72.2 0zm2.9 138.5v-14.4h-5.8v14.4c-34.4-1.5-62-29.1-63.4-63.4h14.4v-5.8H5.8c1.5-34.4 29.1-62 63.4-63.4v14.4H75V5.8c34.4 1.5 62 29.1 63.4 63.4H124V75h14.4c-1.4 34.4-29 62-63.3 63.5z"/>
</svg>