<svg viewBox="0 0 16 16" xmlns="http://www.w3.org/2000/svg">
    <path d="M11.207 2.013h-.802c-.377 0-.693.268-.768.623C9.02 2.944 6 4.374 2.024 4.897a.79.79 0 0 0-.539.322h-.7c-.433 0-.785.353-.785.785v1.604c0 .433.352.785.785.785h.7c.124.17.316.293.54.322l.12.016 1.23 4.43c.094.34.405.575.756.575h1.732a.25.25 0 1 0 0-.501h-.077L4.668 9.212c2.628.64 4.5 1.53 4.97 1.765.075.355.39.623.768.623h.802c.433 0 .785-.353.785-.785V2.798c0-.433-.352-.785-.785-.785zm-9.87 5.88h-.55C.628 7.892.5 7.764.5 7.608V6.004c0-.157.127-.284.284-.284h.55v2.17zm3.93 5.345H4.13c-.127 0-.24-.086-.274-.208l-1.17-4.217 1.426.27 1.154 4.153zm6.225-2.422c0 .157-.127.284-.284.284h-.802c-.157 0-.284-.127-.284-.284v-5.88h-.5v5.476c-.986-.468-3.862-1.7-7.53-2.193-.144-.02-.252-.14-.252-.282v-2.26c0-.142.108-.263.252-.282C5.758 4.91 8.634 3.67 9.62 3.2v1.734h.5V2.8c0-.158.127-.286.284-.286h.802c.157 0 .284.127.284.284v8.017z" />
    <path d="M15.75 6.556h-2.672a.25.25 0 1 0 0 .501h2.672a.25.25 0 1 0 0-.501zm-.572-2.52a.25.25 0 0 0-.329-.131l-.267.114a.25.25 0 0 0 .099.481c.033 0 .066-.007.1-.02l.267-.114a.25.25 0 0 0 .132-.329zm-1.078.457a.25.25 0 0 0-.329-.131l-.802.343a.25.25 0 0 0 .099.481c.033 0 .066-.006.1-.02l.802-.344a.25.25 0 0 0 .132-.329zm.936 4.755l-.268-.115a.25.25 0 1 0-.197.46l.268.115c.032.014.066.02.1.02a.25.25 0 0 0 .099-.481zm-1.06-.448l-.8-.343a.25.25 0 1 0-.197.46l.8.344c.032.014.066.02.1.02a.25.25 0 0 0 .099-.481z" /></svg>