<svg xmlns="http://www.w3.org/2000/svg" x="0px" y="0px" viewBox="0 0 300 300" enable-background="new 0 0 300 300">
<g>
	<g>
		<path d="M276.9,300c-6.1,0-12.1-2.5-16.2-6.8l-61.8-61.7c-21.1,14.6-46.3,22.4-71.9,22.4    C56.8,253.8,0,197.1,0,126.9C0,56.8,56.8,0,126.9,0c70.1,0,126.9,56.8,126.9,126.9c0,25.6-7.8,50.8-22.4,71.9l61.8,61.8    c4.2,4.2,6.7,10.1,6.7,16.2C300,289.5,289.5,300,276.9,300z M126.9,19.3c-59.4,0-107.7,48.3-107.7,107.7s48.3,107.7,107.7,107.7    s107.7-48.3,107.7-107.7S186.3,19.3,126.9,19.3z"/>
	</g>
	<path d="M86.2,206.3c10,5.3,21,8.7,33,9.7v-113h-33V206.3z"/>
	<path d="M130.2,216.2c12-0.5,24-3.3,34-8v-57.2h-34V216.2z"/>
	<path d="M209.2,93.9h-34v107h1c14.3-9,26-22.6,33-38.5V93.9z"/>
	<path d="M41.2,151.8c6,19.4,18,36,34,47.5v-72.5h-34V151.8z"/>
</g>
</svg>