<svg xmlns="http://www.w3.org/2000/svg" viewBox="0 0 1000 1000"><path d="M131.4 30.88c-8.62 4.21-14.17 10.91-17.62 20.87-1.53 4.21-2.3 20.87-2.3 46.34v40.02h30.64l.38-39.83.57-39.64h641.46l.57 137.86.38 137.67 15.32-15.13 15.32-15.32V178.7c0-111.44-.38-125.61-3.06-131.16-4.41-8.62-8.43-12.64-16.47-16.85-6.89-3.45-17.04-3.64-332.21-3.64-322.26 0-325.13 0-332.98 3.83z"/><path d="M19.77 156.11c-5.94 3.26-9.57 10.15-9.77 18 0 4.98 1.72 8.23 6.51 13.02l6.51 6.51h93.06c103.78 0 102.25.19 107.61-12.83 3.64-8.23.96-17.81-6.32-23.55-4.79-3.64-7.47-3.83-98.99-3.83-74.3.19-94.98.57-98.61 2.68zM292.43 167.59c-3.45 5.17-1.34 13.21 3.83 15.32 1.72.58 94.97 1.15 206.99 1.15 201.25 0 203.73 0 207.56-3.83 4.6-4.6 4.79-7.28.77-13.02l-2.87-4.21H295.3l-2.87 4.59zM111.48 282.67v73.72h30.64V208.95h-30.64v73.72zM936.75 220.25c-7.28 2.3-16.85 7.47-18.38 9.96-1.34 2.3 56.1 61.08 59.74 61.08 3.26 0 10.34-14.17 11.49-23.74 2.49-17.42-6.89-35.42-22.59-43.47-8.43-4.4-22.98-6.13-30.26-3.83zM777.25 371.33L649.54 499.04l30.64 30.64 30.64 30.64 117.37-117.38c64.34-64.34 117.76-117.19 118.33-117.19 2.87 0 5.74 10.91 3.83 15.51-.96 2.49-33.89 36.38-72.95 75.44-39.06 38.87-72.38 73.34-73.91 76.4-5.36 9.96 2.11 22.21 13.4 22.21 5.17 0 15.13-9.38 81.19-75.25 43.46-43.27 76.97-78.32 79.46-82.72 5.17-9.96 5.55-29.68.57-39.25-3.06-5.74-69.31-74.68-72-74.68-.57.01-58.39 57.45-128.86 127.92zM292.24 276.93c-2.87 4.4-2.87 5.17 0 9.57 1.72 2.68 4.6 4.79 6.51 4.79 28.34.96 407.08 0 409.96-.96 5.36-1.72 6.89-7.85 3.25-13.4l-3.06-4.79H295.3l-3.06 4.79zM22.06 372.67c-14.17 6.13-15.7 26.23-2.68 34.85l6.51 4.4h90.76c78.12 0 91.91-.38 97.27-2.87 12.64-6.13 15.13-22.21 4.98-32.36l-5.94-5.94-92.48-.38c-76.59-.38-93.44 0-98.42 2.3zM292.24 386.07c-2.87 4.4-2.87 5.17 0 9.57l3.06 4.79h413.41l2.87-4.21c3.83-5.36 3.83-8.23 0-11.87-2.68-2.68-24.32-3.06-209.48-3.06H295.3l-3.06 4.78zM111.48 500v74.68h30.64V425.32h-30.64V500zM295.69 489.85c-4.79 1.91-6.51 10.15-3.26 15.13l2.87 4.6h315.18l9-9.19c4.98-4.98 9-9.77 9-10.53-.01-1.54-328.96-1.54-332.79-.01zM538.48 610.1L437.95 710.63l30.64 30.64 30.64 30.64 100.53-100.53 100.52-100.53-30.64-30.64-30.63-30.64L538.48 610.1z"/><path d="M785.1 730.54l-.57 210.82H143.08l-.57-39.83-.38-39.64h-30.65v40.02c0 25.47.77 42.13 2.3 46.34 3.45 9.96 9.19 16.66 17.81 20.87 7.85 3.83 12.06 3.83 332.98 3.83 314.98 0 325.13-.19 332.02-3.64 8.04-4.21 12.06-8.23 16.47-16.85 2.68-5.55 3.06-25.85 3.06-210.82V536.95l-8.81-2.49c-4.79-1.34-11.68-5.36-15.32-8.62l-6.51-6.13-.38 210.83zM19.38 592.48c-8.62 5.75-11.49 15.89-6.89 25.47 5.94 12.26 6.32 12.26 104.74 12.26 93.63 0 96.12-.19 103.97-9.19 4.4-4.79 4.98-15.7 1.34-22.4-5.55-10.53-5.55-10.53-104.93-10.53H25.89l-6.51 4.39zM292.43 602.25c-3.45 5.17-1.34 13.21 3.83 15.32 1.72.57 48.64 1.15 104.16 1.15h100.91l10.34-10.53 10.34-10.53H295.3l-2.87 4.59z"/><path d="M691.66 608.19l-10.34 10.53h12.83c10.34 0 13.6-.77 16.66-3.83 4.6-4.6 4.79-7.28.77-13.02-4.41-6.51-8.62-5.17-19.92 6.32zM111.48 717.33v73.72h30.64V643.61h-30.64v73.72zM293.77 709.09c-1.34 1.34-2.3 4.59-2.3 7.28 0 9.38.96 9.57 57.83 9.57h53.23l4.79-9.57 4.79-9.57h-58.02c-42.51 0-58.6.57-60.32 2.29zM583.48 716.37l-9.38 9.57h67.2c58.59 0 67.78-.38 70.27-3.06 3.83-3.64 3.83-6.51 0-11.87-2.87-4.21-3.06-4.21-60.7-4.21h-58.02l-9.37 9.57zM406.93 762.52c-32.36 63.76-30.06 58.59-26.62 63.96 1.72 2.68 4.98 4.79 7.08 4.79 4.21 0 99.38-47.29 99.38-49.4 0-.77-13.21-14.74-29.49-30.83l-29.49-29.49-20.86 40.97zM16.51 812.88c-4.6 4.59-6.51 8.23-6.51 12.64 0 7.66 4.98 16.28 10.91 18.96 3.06 1.34 34.85 2.11 98.04 2.11 90.76 0 93.63-.19 98.42-3.83 7.28-5.74 9.96-15.32 6.32-23.55-5.36-13.02-3.83-12.83-107.61-12.83H23.02l-6.51 6.5zM292.24 820.73c-2.87 4.4-2.87 5.17 0 9.57l3.06 4.79h65.1l-1.34-5.36c-.77-2.87-1.34-7.08-1.53-9.57 0-4.21-.19-4.21-31.02-4.21-31.02-.01-31.21-.01-34.27 4.78zM447.53 825.7l-17.23 9.38H708.71l2.87-4.21c3.83-5.36 3.83-8.23 0-11.87-2.68-2.68-16.47-3.06-124.84-2.87l-121.97.19-17.24 9.38z"/></svg>