<svg xmlns="http://www.w3.org/2000/svg" viewBox="0 0 16 16">
    <path d="M10.048 5.807c-.19 0-.345.167-.345.373v7.049c0 .206.155.373.345.373.19 0 .345-.167.345-.373V6.18c0-.206-.154-.373-.345-.373zM5.98 5.807c-.191 0-.346.167-.346.373v7.049c0 .206.155.373.345.373.19 0 .345-.167.345-.373V6.18c0-.206-.154-.373-.345-.373z"/>
    <path fill-rule="nonzero"
          d="M3.014 4.778v9.19c0 .542.184 1.053.506 1.419.32.366.765.575 1.232.576h6.524c.466-.001.912-.21 1.232-.576.322-.366.506-.877.506-1.42V4.778c.64-.183 1.053-.851.968-1.56-.086-.71-.645-1.241-1.306-1.241H10.91V1.51a1.529 1.529 0 0 0-.398-1.045 1.304 1.304 0 0 0-.967-.428H6.483a1.304 1.304 0 0 0-.968.428c-.257.277-.4.653-.398 1.045v.467H3.352c-.662 0-1.22.53-1.306 1.24-.086.71.328 1.378.968 1.561zm8.262 10.439H4.752c-.59 0-1.049-.548-1.049-1.25V4.811h8.621v9.156c0 .702-.459 1.25-1.048 1.25zM5.806 1.51a.75.75 0 0 1 .197-.518.639.639 0 0 1 .48-.209h3.062a.639.639 0 0 1 .48.21.749.749 0 0 1 .196.517v.467H5.807V1.51zM3.353 2.723h9.324c.343 0 .62.3.62.67 0 .372-.277.672-.62.672H3.352c-.343 0-.621-.3-.621-.671 0-.37.278-.671.62-.671z"/>
    <path d="M8.014 5.807c-.19 0-.345.167-.345.373v7.049c0 .206.154.373.345.373.19 0 .345-.167.345-.373V6.18c0-.206-.155-.373-.345-.373z"/>
</svg>
