<svg viewBox="0 0 20 16" version="1.1" xmlns="http://www.w3.org/2000/svg">
    <path d="M17.7006175,8.58765443 L17.7006175,7.92530874 C17.7006175,3.56296301 14.114815,-3.55271368e-15 9.70679025,-3.55271368e-15 C5.2987655,-3.55271368e-15 1.71296299,3.56296301 1.71296299,7.92530874 L1.71296299,8.58765443 C0.685185194,9.27283963 0,10.4833335 0,11.8765434 C0,14.023457 1.64444447,15.7592595 3.65432103,15.7592595 C3.90555561,15.7592595 4.11111116,15.5537039 4.11111116,15.3024693 L4.11111116,8.45061739 C4.11111116,8.19938282 3.90555561,7.99382726 3.65432103,7.99382726 C3.28888893,7.99382726 2.94629633,8.06234578 2.62654324,8.15370381 L2.62654324,7.92530874 C2.62654324,4.06543215 5.80123464,0.913580259 9.70679025,0.913580259 C13.6123459,0.913580259 16.7870373,4.06543215 16.7870373,7.92530874 L16.7870373,8.15370381 C16.4672842,8.06234578 16.1246916,7.99382726 15.7592595,7.99382726 C15.5080249,7.99382726 15.3024693,8.19938282 15.3024693,8.45061739 L15.3024693,15.3024693 C15.3024693,15.5537039 15.5080249,15.7592595 15.7592595,15.7592595 C17.769136,15.7592595 19.4135805,14.023457 19.4135805,11.8765434 C19.4135805,10.4833335 18.7283953,9.27283963 17.7006175,8.58765443 Z M3.19753091,14.8000002 C1.89567904,14.5716051 0.913580259,13.3382718 0.913580259,11.8765434 C0.913580259,10.4148149 1.89567904,9.1814816 3.19753091,8.95308654 L3.19753091,14.8000002 Z M16.2160496,14.8000002 L16.2160496,8.95308654 C17.5179015,9.1814816 18.5000002,10.4148149 18.5000002,11.8765434 C18.5000002,13.3382718 17.5179015,14.5716051 16.2160496,14.8000002 Z"/>
</svg>