<svg viewBox="0 0 16 16" xmlns="http://www.w3.org/2000/svg">
    <path d="M15.33 5.3h-.93V3.66a.72.72 0 0 0-.729-.71h-6.6L5.737 1.13H.73A.72.72 0 0 0 0 1.84L.002 13.2a.65.65 0 0 0 .139.41c.13.167.33.262.543.262H12.62c.308 0 .58-.203.653-.472L16 6.11v-.046c0-.447-.282-.772-.67-.772zM.533 1.84c0-.105.088-.2.195-.2h4.734l1.333 1.82h6.875c.108 0 .195.085.195.2V5.3H3.395c-.038 0-.077.003-.114.01-.26.042-.475.227-.54.462l-2.21 5.873V1.84zm12.232 11.4c-.018.063-.078.108-.145.108H.684c-.065 0-.103-.036-.12-.058s-.043-.067-.033-.106L3.25 5.918a.15.15 0 0 1 .145-.108h11.936c.1 0 .127.142.134.213l-2.7 7.22z"/></svg>