<svg viewBox="0 0 16 16" xmlns="http://www.w3.org/2000/svg">
    <path d="M2 15.5A1.5 1.5 0 0 1 .5 14V2A1.5 1.5 0 0 1 2 .5h12A1.5 1.5 0 0 1 15.5 2v12a1.5 1.5 0 0 1-1.5 1.5H2zm0 .5h12a2 2 0 0 0 2-2V2a2 2 0 0 0-2-2H2a2 2 0 0 0-2 2v12a2 2 0 0 0 2 2zM3 4.5a.5.5 0 0 0-.5.5v6a.5.5 0 0 0 .5.5h3a.5.5 0 0 0 .5-.5V5a.5.5 0 0 0-.5-.5H3zM3 4h3a1 1 0 0 1 1 1v6a1 1 0 0 1-1 1H3a1 1 0 0 1-1-1V5a1 1 0 0 1 1-1z"/>
    <g>
        <path d="M8 6h6v1H8zm0-2h5v1H8z" />
        <path d="M8 9h6v1H8z" />
    </g>
</svg>