<svg viewBox="0 0 16 14" xmlns="http://www.w3.org/2000/svg">
    <path d="M15.37 4.032a.63.63 0 0 1-.012.159l-.987 4.703c-.05.237-.228.403-.433.405l-5.922.036H2.093c-.206 0-.385-.167-.435-.405L.67 4.208C.66 4.153.657 4.1.66 4.045.278 3.9 0 3.476 0 2.975c0-.62.423-1.122.942-1.122s.942.503.942 1.122c0 .35-.134.66-.344.866l1.236 1.483c.312.375.746.6 1.19.6.524 0 1.024-.297 1.34-.793l2.03-3.205c-.17-.203-.276-.483-.276-.793C7.058.503 7.48 0 8 0s.942.503.942 1.122c0 .3-.1.573-.262.774l2.018 3.216c.315.502.816.8 1.342.8.447 0 .868-.208 1.184-.584l1.243-1.48c-.214-.206-.352-.52-.352-.874 0-.62.423-1.122.942-1.122S16 2.356 16 2.975c0 .488-.263.903-.63 1.057zm-.97 7.564c0-.4-.206-.707-.46-.707H2.06c-.254 0-.46.317-.46.707v1.697c0 .39.206.707.46.707h11.88c.254 0 .46-.316.46-.707v-1.697z"/>
</svg>