<svg xmlns="http://www.w3.org/2000/svg" viewBox="0 0 14 16">
    <path d="M11 10.37l1.75 1.188v-5.1L10.993 7.64 11 10.37zM13.25 6v6.03a.25.25 0 0 1-.39.207L10.998 11V7.034l1.863-1.242A.25.25 0 0 1 13.25 6zM.5 7.5v3h1v-3h-1zM0 7h1v4H0V7zm.988-.992C.83 5.578.75 5.242.75 5a2.25 2.25 0 1 1 4.5 0c0 .244-.08.582-.242 1.016L.988 6.01zm3.446-.004c.2-.42.316-.755.316-1.004a1.75 1.75 0 1 0-3.5 0c0 .247.104.58.3.997l2.872.007z"/>
    <path d="M5.44 6c-.46-.83-.69-1.498-.69-2a3.25 3.25 0 1 1 6.5 0c0 .503-.23 1.17-.688 2H5.44zM9.9 5.988c.566-.804.85-1.467.85-1.988a2.75 2.75 0 1 0-5.5 0c0 .524.287 1.2.86 1.997l3.79-.01z"/>
    <path d="M1.5 6.5v5h9v-5h-9zM1 6h10v6H1V6z"/>
    <path d="M3.5 8.5v1h3v-1h-3zM3 8h4v2H3V8z"/>
    <circle cx="8.5" cy="10" r="1"/>
    <circle cx="8.5" cy="8" r="1"/>
    <path d="M4.217 15.624a.25.25 0 1 1-.434-.248l2-3.5a.25.25 0 0 1 .434 0l2 3.5a.25.25 0 0 1-.434.248L6 12.504l-1.783 3.12z"/>
</svg>