<svg xmlns="http://www.w3.org/2000/svg" viewBox="0 0 16 16">
    <g fill-rule="evenodd">
        <path d="M15.515 7.725a.456.456 0 0 0-.457.458v4.163c0 1.132-.922 2.05-2.051 2.05H2.967a2.054 2.054 0 0 1-2.052-2.05v-4.23a.456.456 0 0 0-.457-.458.456.456 0 0 0-.458.457v4.23a2.97 2.97 0 0 0 2.966 2.967h10.04a2.97 2.97 0 0 0 2.967-2.966V8.183a.458.458 0 0 0-.458-.458z" />
        <path d="M7.664 11.678a.447.447 0 0 0 .644 0l2.909-2.909a.456.456 0 0 0 0-.647.456.456 0 0 0-.648 0l-2.125 2.129V.966a.456.456 0 0 0-.458-.458.456.456 0 0 0-.457.458v9.285L5.4 8.122a.456.456 0 0 0-.647 0 .456.456 0 0 0 0 .647l2.911 2.909z" />
    </g>
</svg>