<svg xmlns="http://www.w3.org/2000/svg" viewBox="0 0 16 16">
    <path d="M8 0a8.01 8.01 0 0 0-8 8 8.01 8.01 0 0 0 8 8 8.01 8.01 0 0 0 8-8 8.01 8.01 0 0 0-8-8zm0 14.545c-3.61 0-6.545-2.936-6.545-6.545S4.39 1.455 8 1.455 14.545 4.39 14.545 8 11.61 14.545 8 14.545z" fill-rule="nonzero" />
    <path d="M8 3.394a.97.97 0 0 0-.97.97.97.97 0 1 0 1.94 0 .97.97 0 0 0-.97-.97zm0 3.394c-.402 0-.727.326-.727.727v4.364c0 .402.326.727.727.727a.73.73 0 0 0 .727-.727V7.515c0-.402-.326-.727-.727-.727z" />
</svg>