
<svg xmlns="http://www.w3.org/2000/svg" viewBox="0 0 16 16" fill="none" fill-rule="evenodd"><g fill="#29146b" fill-rule="nonzero"><path d="M11.6 7.117l-5.236 5.236a.5.5 0 0 1-.707-.707l5.5-5.5a.5.5 0 0 1 .59-.087l4.013 2.09v1.167L11.6 7.117z"/><path d="M4.096 8.607L.25 12.34V11l.077-.18 3.578-3.426 4.542 2.27L8 10.56z"/></g><rect stroke="#29146b" x=".5" y="2.5" width="15" height="11" rx="2"/><path d="M6.5 7.5a2 2 0 1 0 0-4 2 2 0 1 0 0 4zm0-1a1 1 0 1 1 0-2 1 1 0 1 1 0 2z" fill="#29146b" fill-rule="nonzero"/></svg>