
<svg xmlns="http://www.w3.org/2000/svg" viewBox="0 0 16 16"><path d="M3.056.837c-.2.156-.274.478-.14.702l.283.5a4.15 4.15 0 0 0-1.523 2.315c-.263 1.043-.16 2.17.215 3.216l1.34 3.74c.278.776.1 1.07-.13 1.53-.115.23-.266.49-.33.838s-.001.764.226 1.158a1.43 1.43 0 0 0 1.942.52l2.62-1.513c.772 1.153 2.328 1.528 3.547.824s1.672-2.24 1.06-3.484l2.62-1.513a1.43 1.43 0 0 0 .52-1.942c-.228-.394-.557-.657-.9-.775s-.635-.118-.89-.133c-.513-.03-.857-.024-1.4-.653l-2.57-3.03c-.72-.847-1.642-1.5-2.677-1.795a4.15 4.15 0 0 0-2.767.161l-.283-.5a.56.56 0 0 0-.784-.169zm1.122 1.82c.8-.468 1.623-.525 2.417-.3s1.563.75 2.162 1.457l2.57 3.03c.73.86 1.588.996 2.14 1.028.275.016.473.03.594.074s.197.086.324.306c.103.178.048.382-.13.485l-9.848 5.686c-.178.103-.382.048-.485-.13-.127-.22-.126-.308-.103-.434s.11-.305.233-.55c.247-.493.56-1.304.18-2.367l-1.34-3.74c-.312-.872-.383-1.8-.18-2.6s.658-1.476 1.468-1.944zm4.33 10.63l2.712-1.566c.324.742.075 1.598-.645 2.014s-1.587.203-2.067-.448z" fill="#29146b" fill-rule="nonzero"/></svg>