
<svg xmlns="http://www.w3.org/2000/svg" viewBox="0 0 16 16" fill="none" fill-rule="evenodd"><g fill="#29146b"><g fill-rule="nonzero"><path d="M7 12.167l2.6 3.467a.5.5 0 1 0 .8-.6L8.126 12l-2.246-.008-2.28 3.04a.5.5 0 1 0 .8.6L7 12.167zm4.6-7.062A3.49 3.49 0 0 0 12 3.5a3.5 3.5 0 1 0-7 0c0 .537.12 1.15.337 1.605h6.274zm-5.1-.102A2.49 2.49 0 0 1 6 3.5a2.5 2.5 0 1 1 5 0 2.49 2.49 0 0 1-.507 1.51l-4-.007z"/><path d="M5.952 4.988A2.51 2.51 0 0 0 6 4.5a2.5 2.5 0 1 0-5 0 2.49 2.49 0 0 0 .386 1.336C2 6 6 5 5.952 4.988zm-3.787.196C2.06 4.98 2 4.747 2 4.5a1.5 1.5 0 1 1 3 0c0 .18-.032.352-.1.512C5 5 3 5 2.165 5.185z"/><path d="M3 5h8a2 2 0 0 1 2 2v3a2 2 0 0 1-2 2H3a2 2 0 0 1-2-2V7a2 2 0 0 1 2-2zm0 1a1 1 0 0 0-1 1v3a1 1 0 0 0 1 1h8a1 1 0 0 0 1-1V7a1 1 0 0 0-1-1H3z"/></g><path d="M8 7h3v1H8z"/></g><rect stroke="#29146b" x="3.5" y="7.5" width="3" height="2" rx="1"/><g fill="#29146b"><path d="M8 9h2v1H8z"/><path d="M15 5.5l-3 1v4l3 1v-6zm-1 4.613l-1-.333V7.22l1-.333v3.225z" fill-rule="nonzero"/></g></svg>