<svg viewBox="0 0 504 249" version="1.1" xmlns="http://www.w3.org/2000/svg" xmlns:xlink="http://www.w3.org/1999/xlink" id="el_0hI-ZLQ0n"><style>@-webkit-keyframes kf_el_js42g7OjjDr_an_ic_awmzie{0%{-webkit-transform: translate(0px, 0px) translate(0px, 0px) translate(13px, -22px);transform: translate(0px, 0px) translate(0px, 0px) translate(13px, -22px);}50.48%{-webkit-transform: translate(0px, 0px) translate(0px, 0px) translate(-2px, 0px);transform: translate(0px, 0px) translate(0px, 0px) translate(-2px, 0px);}100%{-webkit-transform: translate(0px, 0px) translate(0px, 0px) translate(13px, -22px);transform: translate(0px, 0px) translate(0px, 0px) translate(13px, -22px);}}@keyframes kf_el_js42g7OjjDr_an_ic_awmzie{0%{-webkit-transform: translate(0px, 0px) translate(0px, 0px) translate(13px, -22px);transform: translate(0px, 0px) translate(0px, 0px) translate(13px, -22px);}50.48%{-webkit-transform: translate(0px, 0px) translate(0px, 0px) translate(-2px, 0px);transform: translate(0px, 0px) translate(0px, 0px) translate(-2px, 0px);}100%{-webkit-transform: translate(0px, 0px) translate(0px, 0px) translate(13px, -22px);transform: translate(0px, 0px) translate(0px, 0px) translate(13px, -22px);}}@-webkit-keyframes kf_el_js42g7OjjDr_an_nMQ-Fj1LL{0%{-webkit-transform: translate(0px, 0px) rotate(5deg) translate(0px, 0px);transform: translate(0px, 0px) rotate(5deg) translate(0px, 0px);}50.48%{-webkit-transform: translate(0px, 0px) rotate(0deg) translate(0px, 0px);transform: translate(0px, 0px) rotate(0deg) translate(0px, 0px);}100%{-webkit-transform: translate(0px, 0px) rotate(5deg) translate(0px, 0px);transform: translate(0px, 0px) rotate(5deg) translate(0px, 0px);}}@keyframes kf_el_js42g7OjjDr_an_nMQ-Fj1LL{0%{-webkit-transform: translate(0px, 0px) rotate(5deg) translate(0px, 0px);transform: translate(0px, 0px) rotate(5deg) translate(0px, 0px);}50.48%{-webkit-transform: translate(0px, 0px) rotate(0deg) translate(0px, 0px);transform: translate(0px, 0px) rotate(0deg) translate(0px, 0px);}100%{-webkit-transform: translate(0px, 0px) rotate(5deg) translate(0px, 0px);transform: translate(0px, 0px) rotate(5deg) translate(0px, 0px);}}@-webkit-keyframes kf_el_GOjVXFw_Nad_an_iFlyBSgrh{0%{opacity: 0.24;}36.67%{opacity: 0.72;}67.14%{opacity: 0.24;}100%{opacity: 0.24;}}@keyframes kf_el_GOjVXFw_Nad_an_iFlyBSgrh{0%{opacity: 0.24;}36.67%{opacity: 0.72;}67.14%{opacity: 0.24;}100%{opacity: 0.24;}}@-webkit-keyframes kf_el_h8idjm4Zw-l_an_B_dPnsDsf{0%{opacity: 0.8;}13.81%{opacity: 0.08;}28.57%{opacity: 0.8;}42.86%{opacity: 0.08;}57.14%{opacity: 0.8;}71.43%{opacity: 0.08;}85.71%{opacity: 0.08;}100%{opacity: 0.8;}}@keyframes kf_el_h8idjm4Zw-l_an_B_dPnsDsf{0%{opacity: 0.8;}13.81%{opacity: 0.08;}28.57%{opacity: 0.8;}42.86%{opacity: 0.08;}57.14%{opacity: 0.8;}71.43%{opacity: 0.08;}85.71%{opacity: 0.08;}100%{opacity: 0.8;}}@-webkit-keyframes kf_el_ZecCHA0GIAy_an_nRis_rxBL{0%{opacity: 0.64;}21.43%{opacity: 0.16;}42.86%{opacity: 0.64;}71.43%{opacity: 0.64;}85.71%{opacity: 0.32;}100%{opacity: 0.64;}}@keyframes kf_el_ZecCHA0GIAy_an_nRis_rxBL{0%{opacity: 0.64;}21.43%{opacity: 0.16;}42.86%{opacity: 0.64;}71.43%{opacity: 0.64;}85.71%{opacity: 0.32;}100%{opacity: 0.64;}}#el_0hI-ZLQ0n *{-webkit-animation-duration: 7s;animation-duration: 7s;-webkit-animation-iteration-count: infinite;animation-iteration-count: infinite;-webkit-animation-timing-function: cubic-bezier(0, 0, 1, 1);animation-timing-function: cubic-bezier(0, 0, 1, 1);}#el_67xctYnltT{stroke: none;stroke-width: 1;fill: none;}#el_Y1VsMwNyYR{-webkit-transform: translate(-413px, -506px);transform: translate(-413px, -506px);}#el_ZKpR6UVyIo{-webkit-transform: translate(413px, 506px);transform: translate(413px, 506px);}#el_VMVA6PSHWs{opacity: 0.399999976;}#el_TeCafVd3IT{fill: #FFE3EF;}#el_gUfHkjENQ-{fill: #29146B;}#el_8Ivg6uGIQb{fill: #29146B;}#el_O_wHRqcxKt{fill: #29146B;}#el_3ZTzsLXT5Z{fill: #715FAA;}#el_OZdM5ZSWFy{fill: #715FAA;}#el_MkCYjWFjcB{fill: #715FAA;}#el_unfElwP8qr{fill: #715FAA;}#el_PihP7t1xbw{fill: #715FAA;}#el_OSnBYL5dNI{fill: #715FAA;}#el_8PlNGnWhE9{fill: #715FAA;}#el_lmXjcN1g3ro{fill: #715FAA;}#el_DBhigiGP1xE{fill: #715FAA;}#el_nEiqXrqsknR{fill: #715FAA;}#el_KTqeSHS_j3Z{fill: #715FAA;}#el_yJ2oqwidcEv{fill: #715FAA;}#el_WdUKQ8Vu0xd{fill: #715FAA;}#el_IJUJjr74g2p{fill: #715FAA;}#el_L83thHX2wds{fill: #715FAA;}#el_FO13pBAG4z7{fill: #715FAA;}#el_0wTORrDLc2G{fill: #715FAA;}#el_s-3hF0Ilcn_{fill: #715FAA;}#el_tdB_OBVurbR{fill: #715FAA;}#el_9fE0k7NpToM{fill: #715FAA;}#el_6S3zYMI4bGt{fill: #715FAA;}#el_GQFQlsvnwv7{fill: #715FAA;}#el_Ol1pGCAZbWC{fill: #29146B;}#el_zN4jzcEpxVy{fill: #29146B;}#el_Jxdwov5QSL2{fill: #29146B;}#el_62jfXubAk9x{fill: #715FAA;}#el_js42g7OjjDr{-webkit-transform: translate(180.548791735295px, 127.22338818022999px) rotate(-7deg);transform: translate(180.548791735295px, 127.22338818022999px) rotate(-7deg);}#el_WKnNzViGtjg{fill: #E9E3FF;}#el_LMfoL7GP9dh{fill: #29146B;}#el_gdo0u6Z487S{fill: #E9E3FF;}#el_B_x-HeOiSzU{fill: #29146B;}#el_tLalBQDRDtf{fill: #E9E3FF;}#el_LtNTfcyyJzK{fill: #29146B;}#el_ClZCRiMJwIM{fill: #29146B;}#el_pEWPcJIwMG0{fill: #29146B;}#el_9Q7vUWxs15u{fill: #E9E3FF;}#el_ZeXtCXlyZ2t{fill: #29146B;}#el_QhYfWu_kXX-{fill: #29146B;}#el_tAevheBx9uK{fill: #29146B;}#el_dIXJ927mUj0{fill: #29146B;}#el_GC4vFIsbbDG{fill: #FFFFFE;}#el_diWXPNseOL0{fill: #29146B;}#el_09ERe5JqAHK{fill: #29146B;}#el_0EaQwl3_nP-{fill: #29146B;}#el_ZecCHA0GIAy{opacity: 0.64;-webkit-transform: translate(74px, 54px);transform: translate(74px, 54px);fill: #EE3783;-webkit-animation-fill-mode: backwards;animation-fill-mode: backwards;-webkit-animation-name: kf_el_ZecCHA0GIAy_an_nRis_rxBL;animation-name: kf_el_ZecCHA0GIAy_an_nRis_rxBL;-webkit-animation-timing-function: cubic-bezier(0, 0, 1, 1);animation-timing-function: cubic-bezier(0, 0, 1, 1);}#el_lcaY6qjcLwL{-webkit-transform: translate(241px, 22px);transform: translate(241px, 22px);}#el_GEqzDC2W6wN{-webkit-transform: translate(267px, 60px);transform: translate(267px, 60px);}#el_Kx-sjV-OlFm{-webkit-transform: translate(309px, 0px);transform: translate(309px, 0px);}#el_gwxPzpr7hXc{-webkit-transform: translate(0px, 56px);transform: translate(0px, 56px);}#el_HpQle1VfAmo{-webkit-transform: translate(342px, 27px);transform: translate(342px, 27px);}#el_h8idjm4Zw-l{opacity: 0.8;-webkit-transform: translate(18px, 81px);transform: translate(18px, 81px);fill: #EE3783;-webkit-animation-fill-mode: backwards;animation-fill-mode: backwards;-webkit-animation-name: kf_el_h8idjm4Zw-l_an_B_dPnsDsf;animation-name: kf_el_h8idjm4Zw-l_an_B_dPnsDsf;-webkit-animation-timing-function: cubic-bezier(0, 0, 1, 1);animation-timing-function: cubic-bezier(0, 0, 1, 1);}#el_1a5HG1_PGQf{-webkit-transform: translate(0px, 66px);transform: translate(0px, 66px);}#el_P2DoW9BAsGa{-webkit-transform: translate(417px, 38px);transform: translate(417px, 38px);}#el_rWgI6cRSj_W{-webkit-transform: translate(116px, 0px);transform: translate(116px, 0px);}#el_GOjVXFw_Nad{opacity: 0.24;-webkit-transform: translate(255px, 1px);transform: translate(255px, 1px);fill: #EE3783;-webkit-animation-fill-mode: backwards;animation-fill-mode: backwards;-webkit-animation-name: kf_el_GOjVXFw_Nad_an_iFlyBSgrh;animation-name: kf_el_GOjVXFw_Nad_an_iFlyBSgrh;-webkit-animation-timing-function: cubic-bezier(0, 0, 1, 1);animation-timing-function: cubic-bezier(0, 0, 1, 1);}#el_js42g7OjjDr_an_nMQ-Fj1LL{-webkit-animation-fill-mode: backwards;animation-fill-mode: backwards;-webkit-transform: translate(0px, 0px) rotate(5deg) translate(0px, 0px);transform: translate(0px, 0px) rotate(5deg) translate(0px, 0px);-webkit-animation-name: kf_el_js42g7OjjDr_an_nMQ-Fj1LL;animation-name: kf_el_js42g7OjjDr_an_nMQ-Fj1LL;-webkit-animation-timing-function: cubic-bezier(0, 0, 1, 1);animation-timing-function: cubic-bezier(0, 0, 1, 1);}#el_js42g7OjjDr_an_ic_awmzie{-webkit-animation-fill-mode: backwards;animation-fill-mode: backwards;-webkit-transform: translate(0px, 0px) translate(0px, 0px) translate(13px, -22px);transform: translate(0px, 0px) translate(0px, 0px) translate(13px, -22px);-webkit-animation-name: kf_el_js42g7OjjDr_an_ic_awmzie;animation-name: kf_el_js42g7OjjDr_an_ic_awmzie;-webkit-animation-timing-function: cubic-bezier(0, 0, 1, 1);animation-timing-function: cubic-bezier(0, 0, 1, 1);}</style>    
    <g id="el_67xctYnltT" fill-rule="evenodd">
        <g id="el_Y1VsMwNyYR">
            <g id="el_ZKpR6UVyIo">
                <g id="el_VMVA6PSHWs">
                    <ellipse id="el_TeCafVd3IT" cx="257" cy="229" rx="116" ry="20"/>
                    <polyline id="el_gUfHkjENQ-" points="237.015039 223 233 221.182644 254.984961 174 259 175.818444 237.015039 223"/>
                    <polyline id="el_8Ivg6uGIQb" points="277.984791 223 256 175.818444 260.015209 174 282 221.182644 277.984791 223"/>
                    <polygon id="el_O_wHRqcxKt" points="255 223 259 223 259 174 255 174"/>
                    <path d="M317.682783,33.3181023 C319.439072,35.0755719 319.439072,37.9244281 317.682783,39.6818977 C315.924243,41.4393674 313.075476,41.4393674 311.318061,39.6818977 C309.560646,37.9244281 309.560646,35.0755719 311.318061,33.3181023 C313.075476,31.5606326 315.924243,31.5606326 317.682783,33.3181023" id="el_3ZTzsLXT5Z"/>
                    <circle id="el_OZdM5ZSWFy" cx="323" cy="18" r="5"/>
                    <path d="M305.121787,12.8789634 C306.292738,14.0509145 306.292738,15.9498354 305.121787,17.1217866 C303.949835,18.2927378 302.049915,18.2927378 300.878963,17.1217866 C299.707012,15.9498354 299.707012,14.0509145 300.878963,12.8789634 C302.049915,11.7070122 303.949835,11.7070122 305.121787,12.8789634" id="el_MkCYjWFjcB"/>
                    <path d="M275.84,100 L253.16,100 C251.96768,100 251,99.104 251,98 C251,96.895 251.96768,96 253.16,96 L275.84,96 C277.03232,96 278,96.895 278,98 C278,99.104 277.03232,100 275.84,100" id="el_unfElwP8qr"/>
                    <path d="M242.818182,100 L235.181818,100 C233.977455,100 233,99.104 233,98 C233,96.895 233.977455,96 235.181818,96 L242.818182,96 C244.022545,96 245,96.895 245,98 C245,99.104 244.022545,100 242.818182,100" id="el_PihP7t1xbw"/>
                    <path d="M448.846154,71 L439.153846,71 C437.964923,71 437,70.104 437,69 C437,67.895 437.964923,67 439.153846,67 L448.846154,67 C450.035077,67 451,67.895 451,69 C451,70.104 450.035077,71 448.846154,71" id="el_OSnBYL5dNI"/>
                    <path d="M463.777778,71 L458.222222,71 C456.995556,71 456,70.104 456,69 C456,67.895 456.995556,67 458.222222,67 L463.777778,67 C465.004444,67 466,67.895 466,69 C466,70.104 465.004444,71 463.777778,71" id="el_8PlNGnWhE9"/>
                    <path d="M468.84,89 L446.16,89 C444.96768,89 444,88.104 444,87 C444,85.895 444.96768,85 446.16,85 L468.84,85 C470.03232,85 471,85.895 471,87 C471,88.104 470.03232,89 468.84,89" id="el_lmXjcN1g3ro"/>
                    <path d="M483.75,89 L479.25,89 C478.008,89 477,88.104 477,87 C477,85.895 478.008,85 479.25,85 L483.75,85 C484.992,85 486,85.895 486,87 C486,88.104 484.992,89 483.75,89" id="el_DBhigiGP1xE"/>
                    <path d="M188.821161,170 C187.883686,170 187.016985,169.3829 186.73498,168.4281 C185.195387,163.2097 180.542855,159.4411 175.158635,159.0506 C174.266891,158.9857 173.504716,158.3774 173.236866,157.515 C170.445129,148.5346 162.304014,142.5 152.979351,142.5 C147.259775,142.5 141.892976,144.7704 137.868693,148.8921 C137.319928,149.4542 136.5142,149.6742 135.761825,149.474 C135.006183,149.2727 134.416042,148.6787 134.21461,147.9164 C131.480581,137.6028 122.183138,130.4 111.604153,130.4 C100.68219,130.4 91.3128848,137.8943 88.8205736,148.627 C88.5668783,149.7226 87.5314095,150.4541 86.4295226,150.3067 C85.8524475,150.2341 85.3755439,150.2 84.9280385,150.2 C81.9283366,150.2 79.0516715,151.3396 76.8272102,153.4087 C76.2740891,153.9235 75.4966709,154.1149 74.7704273,153.9114 C71.4233915,152.9731 68.0796222,153.6661 65.4141884,155.6538 C64.8741332,156.0575 64.1794654,156.1873 63.5316169,156.0014 C62.8837684,155.8177 62.3578678,155.3425 62.1041725,154.7144 C59.9210864,149.2991 54.7764072,145.8 48.9969453,145.8 C41.1922763,145.8 34.8422722,152.2152 34.8422722,160.1 C34.8422722,162.4485 35.3953933,164.6914 36.4874807,166.7682 C36.8467917,167.4502 36.8250152,168.2719 36.430862,168.933 C36.0377977,169.5952 35.3289752,170 34.5646228,170 L2.17764201,170 C0.9744948,170 0,169.0144 0,167.8 C0,166.5856 0.9744948,165.6 2.17764201,165.6 L31.3123145,165.6 C30.767904,163.8224 30.4869882,161.9634 30.4869882,160.1 C30.4869882,149.7886 38.7903372,141.4 48.9969453,141.4 C55.6986386,141.4 61.7470393,144.9959 65.0222128,150.7456 C67.9848948,149.2287 71.3852828,148.7128 74.7769602,149.3937 C77.7015335,147.0386 81.3153304,145.7637 85.0663187,145.8 C88.6180529,134.0509 99.2776105,126 111.604153,126 C122.995398,126 133.135589,133.0444 137.332993,143.4988 C141.794982,139.9964 147.239087,138.1 152.979351,138.1 C163.736903,138.1 173.18678,144.7649 176.926881,154.831 C183.477228,155.8782 188.995373,160.6852 190.908431,167.1719 C191.252499,168.3357 190.597028,169.5611 189.443967,169.9087 C189.237091,169.9714 189.026948,170 188.821161,170" id="el_nEiqXrqsknR"/>
                    <path d="M146.57875,184 C146.417333,184 146.25375,183.981867 146.090167,183.9422 C144.9245,183.661133 144.1965,182.443933 144.46625,181.224467 C144.600583,180.611333 144.666667,180.036733 144.666667,179.466667 C144.666667,175.092 141.263917,171.533333 137.083333,171.533333 C133.719583,171.533333 130.724167,173.897467 129.797917,177.283867 C129.599667,178.011467 129.065583,178.588333 128.3755,178.819533 C127.6865,179.0496 126.931417,178.904533 126.365917,178.433067 C125.396333,177.626133 124.232833,177.2 123,177.2 C120.327417,177.2 118.026417,179.2876 117.64725,182.054067 C117.4945,183.171533 116.580167,184 115.50225,184 L99.1666667,184 C97.9695833,184 97,182.984533 97,181.733333 C97,180.482133 97.9695833,179.466667 99.1666667,179.466667 L113.816583,179.466667 C115.171833,175.4796 118.835667,172.666667 123,172.666667 C124.261,172.666667 125.509,172.927333 126.670333,173.4226 C128.738417,169.537533 132.713167,167 137.083333,167 C143.65375,167 149,172.593 149,179.466667 C149,180.371067 148.894917,181.3038 148.688,182.2422 C148.45725,183.291667 147.564583,184 146.57875,184" id="el_KTqeSHS_j3Z"/>
                    <path d="M447.370909,185 C447.208364,185 447.042545,184.981522 446.876727,184.943478 C445.702909,184.671739 444.972,183.504348 445.243636,182.334783 C445.504364,181.211957 445.636364,180.096739 445.636364,179.021739 C445.636364,172.15 440.772,166.136957 434.053091,164.682609 L430.801091,164.347826 C425.403273,164.386957 420.473455,167.354348 417.918545,172.111957 C417.582545,172.738043 416.959636,173.161957 416.251636,173.244565 C415.545818,173.332609 414.84,173.061957 414.364364,172.532609 C412.185818,170.093478 409.071273,168.695652 405.818182,168.695652 C401.480727,168.695652 397.565455,171.101087 395.600727,174.973913 C395.28,175.605435 394.672364,176.041304 393.969818,176.144565 C393.269455,176.245652 392.558182,176.003261 392.071636,175.490217 C390.903273,174.26413 389.129455,173.802174 387.482182,174.375 C386.729455,174.636957 385.892727,174.467391 385.300364,173.932609 C383.94,172.704348 382.202182,172.007609 380.386909,171.958696 L377.033455,172.632609 C375.162545,173.482609 373.699636,175.06413 373.001455,177.001087 C372.782182,177.61087 372.302182,178.090217 371.690182,178.31087 C371.081455,178.532609 370.402909,178.468478 369.843273,178.141304 C369.004364,177.651087 368.052,177.391304 367.090909,177.391304 C364.084364,177.391304 361.636364,179.828261 361.636364,182.825 C361.636364,184.026087 360.66,184.998913 359.454545,184.998913 L332.181818,184.998913 C330.977455,184.998913 330,184.026087 330,182.825 C330,181.625 330.977455,180.651087 332.181818,180.651087 L357.517091,180.651087 C358.512,176.301087 362.427273,173.043478 367.090909,173.043478 C368.038909,173.043478 368.978182,173.181522 369.881455,173.45 C371.182909,171.276087 373.156364,169.543478 375.522545,168.546739 C375.657818,168.48913 375.797455,168.445652 375.941455,168.417391 L379.750909,167.651087 C379.892727,167.622826 380.037818,167.608696 380.181818,167.608696 C382.747636,167.608696 385.226182,168.428261 387.281455,169.938043 C389.270182,169.554348 391.327636,169.890217 393.048,170.819565 C395.996727,166.775 400.694182,164.347826 405.818182,164.347826 C409.368,164.347826 412.796727,165.55 415.562182,167.709783 C419.131636,162.896739 424.794545,160 430.909091,160 C430.984364,160 431.058545,160.003261 431.132727,160.01087 L434.618182,160.369565 C434.693455,160.377174 434.767636,160.38913 434.841818,160.404348 C443.625818,162.238043 450,170.067391 450,179.021739 C450,180.426087 449.829818,181.870652 449.493818,183.315217 C449.261455,184.320652 448.362545,185 447.370909,185" id="el_yJ2oqwidcEv"/>
                    <path d="M400.185567,140 L442.804124,140 C444.011649,140 444.989691,139.008681 444.989691,137.787234 C444.989691,132.600511 449.157567,128.382979 454.278351,128.382979 C454.484887,128.382979 454.688144,128.399574 454.891402,128.413957 C455.973258,128.490298 457.023423,127.760085 457.256186,126.684681 C458.287773,121.898468 462.550722,118.425532 467.391753,118.425532 C473.116845,118.425532 477.773196,123.13983 477.773196,128.93617 C477.773196,130.157617 478.75233,131.148936 479.958763,131.148936 L501.814433,131.148936 C503.021959,131.148936 504,130.157617 504,128.93617 C504,127.713617 503.021959,126.723404 501.814433,126.723404 L481.983691,126.723404 C480.923691,119.531915 474.784433,114 467.391753,114 C461.120268,114 455.531773,118.102468 453.480619,123.979574 C447.051773,124.356851 441.802041,129.255915 440.794495,135.574468 L400.185567,135.574468 C398.979134,135.574468 398,136.564681 398,137.787234 C398,139.008681 398.979134,140 400.185567,140" id="el_WdUKQ8Vu0xd"/>
                    <path d="M379.266667,140 L391.733333,140 C392.985667,140 394,139.104 394,138 C394,136.895 392.985667,136 391.733333,136 L379.266667,136 C378.015467,136 377,136.895 377,138 C377,139.104 378.015467,140 379.266667,140" id="el_IJUJjr74g2p"/>
                    <path d="M199,96 C199,97.104 198.104,98 197,98 C195.896,98 195,97.104 195,96 C195,94.895 195.896,94 197,94 C198.104,94 199,94.895 199,96" id="el_L83thHX2wds"/>
                    <path d="M211,104 C211,105.104 210.104,106 209,106 C207.896,106 207,105.104 207,104 C207,102.895 207.896,102 209,102 C210.104,102 211,102.895 211,104" id="el_FO13pBAG4z7"/>
                    <path d="M200,103.999434 C200,106.208127 198.208127,108 195.999434,108 C193.79074,108 192,106.208127 192,103.999434 C192,101.79074 193.79074,100 195.999434,100 C198.208127,100 200,101.79074 200,103.999434" id="el_0wTORrDLc2G"/>
                    <path d="M161.826087,111 L141.173913,111 C139.973913,111 139,110.104 139,109 C139,107.896 139.973913,107 141.173913,107 L161.826087,107 C163.026087,107 164,107.896 164,109 C164,110.104 163.026087,111 161.826087,111" id="el_s-3hF0Ilcn_"/>
                    <path d="M131.75,111 L127.25,111 C126.008,111 125,110.104 125,109 C125,107.896 126.008,107 127.25,107 L131.75,107 C132.992,107 134,107.896 134,109 C134,110.104 132.992,111 131.75,111" id="el_tdB_OBVurbR"/>
                    <path d="M277,61 C277,62.6575 275.656,64 274,64 C272.344,64 271,62.6575 271,61 C271,59.344 272.344,58 274,58 C275.656,58 277,59.344 277,61" id="el_9fE0k7NpToM"/>
                    <path d="M155.851852,49 L131.148148,49 C129.96237,49 129,48.104 129,47 C129,45.896 129.96237,45 131.148148,45 L155.851852,45 C157.03763,45 158,45.896 158,47 C158,48.104 157.03763,49 155.851852,49" id="el_6S3zYMI4bGt"/>
                    <path d="M122.777778,49 L117.222222,49 C115.995556,49 115,48.104 115,47 C115,45.896 115.995556,45 117.222222,45 L122.777778,45 C124.004444,45 125,45.896 125,47 C125,48.104 124.004444,49 122.777778,49" id="el_GQFQlsvnwv7"/>
                    <path d="M313.000135,4.33411234 C307.448671,4.33411234 301.89829,6.44650269 297.671287,10.6723672 C289.220532,19.1240963 289.220532,32.8768521 297.671287,41.3285811 C306.123126,49.7803102 319.876061,49.7792264 328.3279,41.3285811 C336.778656,32.8768521 336.778656,19.1240963 328.3279,10.6723672 C324.101981,6.44650269 318.5516,4.33411234 313.000135,4.33411234 Z M313.000135,52 C306.337728,52 299.677488,49.4649148 294.606168,44.3936606 C284.464611,34.2511522 284.464611,17.7497961 294.606168,7.60728774 C304.748808,-2.53630449 321.252547,-2.53522066 331.39302,7.60728774 C341.53566,17.7497961 341.53566,34.2511522 331.39302,44.3936606 C326.322783,49.4649148 319.660375,52 313.000135,52 L313.000135,52 Z" id="el_Ol1pGCAZbWC"/>
                    <path d="M201,92.3333333 C196.221417,92.3333333 192.333333,96.2203333 192.333333,101 C192.333333,105.778583 196.221417,109.666667 201,109.666667 C205.778583,109.666667 209.666667,105.778583 209.666667,101 C209.666667,96.2203333 205.778583,92.3333333 201,92.3333333 Z M201,114 C193.831583,114 188,108.167333 188,101 C188,93.8315833 193.831583,88 201,88 C208.168417,88 214,93.8315833 214,101 C214,108.167333 208.168417,114 201,114 L201,114 Z" id="el_zN4jzcEpxVy"/>
                    <path d="M209,31.3076923 C203.656308,31.3076923 199.307692,35.6563077 199.307692,41 C199.307692,46.3447692 203.656308,50.6923077 209,50.6923077 C214.343692,50.6923077 218.692308,46.3447692 218.692308,41 C218.692308,35.6563077 214.343692,31.3076923 209,31.3076923 Z M209,55 C201.280615,55 195,48.7204615 195,41 C195,33.2806154 201.280615,27 209,27 C216.719385,27 223,33.2806154 223,41 C223,48.7204615 216.719385,55 209,55 L209,55 Z" id="el_Jxdwov5QSL2"/>
                    <circle id="el_62jfXubAk9x" cx="212" cy="38" r="2"/>
                    <g id="el_js42g7OjjDr_an_ic_awmzie" data-animator-group="true" data-animator-type="0"><g id="el_js42g7OjjDr_an_nMQ-Fj1LL" data-animator-group="true" data-animator-type="1"><g id="el_js42g7OjjDr">
                        <polyline id="el_WKnNzViGtjg" points="108 27.8608309 46.9108873 60 40 47.1391691 101.089113 15 108 27.8608309"/>
                        <path d="M42.8908181,48.7741253 L47.7678929,58.0463561 L105.109182,27.2269754 L100.231018,17.9536439 L42.8908181,48.7741253 Z M45.9668923,64 L37,46.9535804 L102.033108,12 L111,29.0475203 L45.9668923,64 L45.9668923,64 Z" id="el_LMfoL7GP9dh"/>
                        <polyline id="el_gdo0u6Z487S" points="125 23.732556 109.201272 32 98 11.267444 113.799829 3 125 23.732556"/>
                        <path d="M101.784356,12.1428793 L110.652277,29.1146206 L122.215644,22.8571207 L113.348792,5.88537943 L101.784356,12.1428793 Z M108.883825,35 L96,10.3432089 L115.117244,0 L128,24.6567911 L108.883825,35 L108.883825,35 Z" id="el_B_x-HeOiSzU"/>
                        <polyline id="el_tLalBQDRDtf" points="7.16213267 78 45 57.8438049 40.8367761 50 3 70.1561951 7.16213267 78"/>
                        <path d="M5.91566622,71.0796337 L8.03262182,75.0718961 L42.0843338,56.9214624 L39.9673782,52.9292001 L5.91566622,71.0796337 Z M6.22511789,81 L0,69.2654673 L41.7748821,47 L48,58.7345327 L6.22511789,81 L6.22511789,81 Z" id="el_LtNTfcyyJzK"/>
                        <polyline id="el_ClZCRiMJwIM" points="61.3158993 36 58 29.1514766 61.6841007 27 65 33.8485234 61.3158993 36"/>
                        <polyline id="el_pEWPcJIwMG0" points="48.3158993 43 45 36.1514766 48.6841007 34 52 40.8485234 48.3158993 43"/>
                        <polyline id="el_9Q7vUWxs15u" points="75 20.4748764 44.3911461 37 41 30.5251236 71.6099206 14 75 20.4748764"/>
                        <path d="M43.9493603,31.4504204 L45.380066,34.1127083 L73.0506397,19.5506681 L71.6210337,16.8883801 L43.9493603,31.4504204 Z M43.5611673,40 L38,29.6501651 L73.4399324,11 L79,21.3509233 L43.5611673,40 L43.5611673,40 Z" id="el_ZeXtCXlyZ2t"/>
                        <polyline id="el_QhYfWu_kXX-" points="7.22851041 70 5.05018687 65.7866032 1 65.3715227 1.42285104 61 7.74853177 61.647877 11 67.9377745 7.22851041 70"/>
                        <polyline id="el_tAevheBx9uK" points="57.3214961 65.9925462 52.8781307 57.5946283 56.6902749 55.5580464 59.1061795 60.1257156 81.2237377 48.3063836 89.2699194 35.9925462 92.8781307 38.3728961 84.2255451 51.6150158 57.3214961 65.9925462"/>
                        <polyline id="el_dIXJ927mUj0" points="123.473234 24 113 4.44540613 119.525664 1 130 20.5556877 123.473234 24"/>
                        <path d="M78,55.5005077 C78,58.5376165 75.5384047,61 72.5,61 C69.4626108,61 67,58.5376165 67,55.5005077 C67,52.4633989 69.4626108,50 72.5,50 C75.5384047,50 78,52.4633989 78,55.5005077" id="el_GC4vFIsbbDG"/>
                        <path d="M72.5,51.3147037 C70.3417611,51.3147037 68.5846818,52.9683139 68.5846818,55.0005393 C68.5846818,57.0327648 70.3417611,58.6852963 72.5,58.6852963 C74.6593851,58.6852963 76.4153182,57.0327648 76.4153182,55.0005393 C76.4153182,52.9683139 74.6593851,51.3147037 72.5,51.3147037 Z M72.5,63 C67.8133091,63 64,59.4112452 64,55.0005393 C64,50.5898335 67.8133091,47 72.5,47 C77.1866909,47 81,50.5898335 81,55.0005393 C81,59.4112452 77.1866909,63 72.5,63 L72.5,63 Z" id="el_diWXPNseOL0"/>
                        <polyline id="el_09ERe5JqAHK" points="66.3158993 26 63 19.1514766 66.6841007 17 70 23.8485234 66.3158993 26"/>
                        <polyline id="el_0EaQwl3_nP-" points="13.153553 75 9 67.0757844 12.846447 65 17 72.9253204 13.153553 75"/>
                    </g></g></g>
                </g>
                <g id="el_ZecCHA0GIAy">
                    <g id="el_lcaY6qjcLwL">
                        <path d="M7,6 C6.447,6 6,5.4624 6,4.8 L6,1.2 C6,0.5376 6.447,0 7,0 C7.553,0 8,0.5376 8,1.2 L8,4.8 C8,5.4624 7.553,6 7,6" id="el_KWb_EzBicLX"/>
                        <path d="M4.8,8 L1.2,8 C0.5364,8 0,7.552 0,7 C0,6.448 0.5364,6 1.2,6 L4.8,6 C5.4636,6 6,6.448 6,7 C6,7.552 5.4636,8 4.8,8" id="el_X7NUM7u2vkL"/>
                        <path d="M7,14 C6.447,14 6,13.4624 6,12.8 L6,9.2 C6,8.5376 6.447,8 7,8 C7.553,8 8,8.5376 8,9.2 L8,12.8 C8,13.4624 7.553,14 7,14" id="el_57ouWr8TcVu"/>
                        <path d="M12.8,8 L9.2,8 C8.5364,8 8,7.552 8,7 C8,6.448 8.5364,6 9.2,6 L12.8,6 C13.4636,6 14,6.448 14,7 C14,7.552 13.4636,8 12.8,8" id="el_K4dTTMzgFPK"/>
                    </g>
                    <g id="el_GEqzDC2W6wN">
                        <path d="M8.66666667,6 L7.33333333,6 C6.596,6 6,5.552 6,5 C6,4.448 6.596,4 7.33333333,4 L8.66666667,4 C9.40266667,4 10,4.448 10,5 C10,5.552 9.40266667,6 8.66666667,6" id="el_kBs50uMsnmV"/>
                        <path d="M5,4 C4.447,4 4,3.40266667 4,2.66666667 L4,1.33333333 C4,0.597333333 4.447,0 5,0 C5.552,0 6,0.597333333 6,1.33333333 L6,2.66666667 C6,3.40266667 5.552,4 5,4" id="el_wQ7E2C4arpb"/>
                        <path d="M2.66666667,6 L1.33333333,6 C0.596,6 0,5.552 0,5 C0,4.448 0.596,4 1.33333333,4 L2.66666667,4 C3.40266667,4 4,4.448 4,5 C4,5.552 3.40266667,6 2.66666667,6" id="el_LOqt26BSag6"/>
                        <path d="M5,10 C4.447,10 4,9.40266667 4,8.66666667 L4,7.33333333 C4,6.59733333 4.447,6 5,6 C5.552,6 6,6.59733333 6,7.33333333 L6,8.66666667 C6,9.40266667 5.552,10 5,10" id="el_6gl0WG9Kcvs"/>
                    </g>
                    <g id="el_Kx-sjV-OlFm">
                        <path d="M1.1,11 C0.4917,11 0,10.5082016 0,9.89977996 C0,9.29245849 0.4917,8.79955991 1.1,8.79955991 C8.6713,8.79955991 8.7978,1.4104821 8.8,1.09581916 C8.8033,0.49069814 9.295,0 9.9,0 C9.9011,0 9.9022,0 9.9033,0 C10.5094,0.00110022004 11,0.49179836 11,1.0980196 C11,4.5230046 8.9309,11 1.1,11" id="el_dJ5vD20XMht"/>
                        <path d="M19.9,11 C12.0691,11 10,4.5243 10,1.1 C10,0.4928 10.4917,0 11.1,0 C11.7072,0 12.1978,0.4917 12.2,1.0978 C12.2022,1.4124 12.3287,8.8 19.9,8.8 C20.5083,8.8 21,9.2928 21,9.9 C21,10.5083 20.5083,11 19.9,11 L19.9,11 Z" id="el_ceJTAyRBTcq"/>
                        <path d="M11.1,19 C11.0989,19 11.0978,19 11.0967,19 C10.4906,18.9988999 10,18.5082508 10,17.9009901 C10,14.4774477 12.0691,8 19.9,8 C20.5083,8 21,8.49284928 21,9.10011001 C21,9.70847085 20.5083,10.20022 19.9,10.20022 C12.3287,10.20022 12.2022,17.589659 12.2,17.9042904 C12.1967,18.5093509 11.705,19 11.1,19" id="el_2D1qWgjCMoP"/>
                        <path d="M9.9,19 C9.2928,19 8.8022,18.5094 8.8,17.9033 C8.7978,17.5887 8.6713,10.2 1.1,10.2 C0.4917,10.2 0,9.7083 0,9.1 C0,8.4928 0.4917,8 1.1,8 C8.9309,8 11,14.4768 11,17.9 C11,18.5083 10.5083,19 9.9,19" id="el_X3nreDwxUuI"/>
                    </g>
                    <g id="el_gwxPzpr7hXc">
                        <path d="M1.1,11 C0.4928,11 0,10.5071507 0,9.89988999 C0,9.29262926 0.4928,8.79977998 1.1,8.79977998 C8.6713,8.79977998 8.7989,1.41034103 8.8,1.09680968 C8.8033,0.490649065 9.2961,0 9.9,0 C9.9011,0 9.9022,0 9.9033,0 C10.5094,0.00220022002 11,0.492849285 11,1.0990099 C11,4.52365237 8.932,11 1.1,11" id="el_3FaqILbpyi2"/>
                        <path d="M17.9,11 C10.0691,11 8,4.5243 8,1.1 C8,0.4928 8.4928,0 9.1,0 C9.7072,0 10.1989,0.4906 10.2,1.0978 C10.2022,1.4113 10.3298,8.8 17.9,8.8 C18.5083,8.8 19,9.2928 19,9.9 C19,10.5072 18.5083,11 17.9,11 L17.9,11 Z" id="el_e2rOGZUvVuZ"/>
                        <path d="M9.1,19 C9.1,19 9.0989,19 9.0978,19 C8.4917,18.9977998 8,18.5071507 8,17.9009901 C8,14.4763476 10.0691,8 17.9,8 C18.5083,8 19,8.49284928 19,9.10011001 C19,9.70737074 18.5083,10.20022 17.9,10.20022 C10.3298,10.20022 10.2022,17.589659 10.2,17.9031903 C10.1978,18.5093509 9.705,19 9.1,19" id="el_2v5-bFPVzes"/>
                        <path d="M9.9,19 C9.2939,19 8.8022,18.5094 8.8,17.9022 C8.7989,17.5887 8.6713,10.2 1.1,10.2 C0.4928,10.2 0,9.7072 0,9.1 C0,8.4928 0.4928,8 1.1,8 C8.932,8 11,14.4757 11,17.9 C11,18.5072 10.5083,19 9.9,19" id="el_J6o0tMew7Vx"/>
                    </g>
                    <g id="el_HpQle1VfAmo">
                        <path d="M7,8 C6.447,8 6,7.488 6,6.85714286 L6,1.14285714 C6,0.510857143 6.447,0 7,0 C7.553,0 8,0.510857143 8,1.14285714 L8,6.85714286 C8,7.488 7.553,8 7,8" id="el_Qrr_KXH0mKw"/>
                        <path d="M7,17 C6.447,17 6,16.488 6,15.8571429 L6,10.1428571 C6,9.51085714 6.447,9 7,9 C7.553,9 8,9.51085714 8,10.1428571 L8,15.8571429 C8,16.488 7.553,17 7,17" id="el_eUj2VM2ppjH"/>
                        <path d="M4.8,10 L1.2,10 C0.5364,10 0,9.552 0,9 C0,8.447 0.5364,8 1.2,8 L4.8,8 C5.4636,8 6,8.447 6,9 C6,9.552 5.4636,10 4.8,10" id="el_h4SVELUDHUx"/>
                        <path d="M12.8,10 L9.2,10 C8.5364,10 8,9.552 8,9 C8,8.447 8.5364,8 9.2,8 L12.8,8 C13.4636,8 14,8.447 14,9 C14,9.552 13.4636,10 12.8,10" id="el_pdlnCFwbRMC"/>
                    </g>
                </g>
                <g id="el_h8idjm4Zw-l">
                    <g id="el_1a5HG1_PGQf">
                        <path d="M5.17168168,4 C4.87180614,4 4.5719306,3.88518708 4.34350977,3.65673281 C3.88549674,3.19865271 3.88549674,2.45705499 4.34350977,2.00014645 L6.00102497,0.343560079 C6.45786661,-0.114520026 7.19935574,-0.114520026 7.65736877,0.343560079 C8.11421041,0.800468624 8.11421041,1.5432379 7.65736877,2.00014645 L5.99985358,3.65673281 C5.77143275,3.88518708 5.47155722,4 5.17168168,4" id="el_yJ7fXcil4xI"/>
                        <path d="M2.82831832,4 C2.52844278,4 2.22856725,3.88518708 2.00014642,3.65673281 L0.342631232,2.00014645 C-0.114210411,1.5432379 -0.114210411,0.800468624 0.342631232,0.343560079 C0.799472875,-0.114520026 1.54213339,-0.114520026 1.99897503,0.343560079 L3.65649023,2.00014645 C4.11450326,2.45705499 4.11450326,3.19865271 3.65649023,3.65673281 C3.4280694,3.88518708 3.12819386,4 2.82831832,4" id="el_teoEf4SZpeQ"/>
                        <path d="M1.17080313,8 C0.870927594,8 0.572223442,7.88518708 0.342631232,7.65673281 C-0.114210411,7.19865271 -0.114210411,6.45705499 0.342631232,6.00014645 L2.00014642,4.34356008 C2.45815946,3.88547997 3.19847719,3.88547997 3.65649023,4.34356008 C4.11450326,4.80046862 4.11450326,5.54206634 3.65649023,6.00014645 L1.99897503,7.65673281 C1.77055421,7.88518708 1.47067867,8 1.17080313,8" id="el_fjXpZOdvScc"/>
                        <path d="M6.82919687,8 C6.52932133,8 6.22944579,7.88518708 6.00102497,7.65673281 L4.34350977,6.00014645 C3.88549674,5.54206634 3.88549674,4.80046862 4.34350977,4.34356008 C4.80035142,3.88547997 5.54184054,3.88547997 5.99985358,4.34356008 L7.65736877,6.00014645 C8.11421041,6.45705499 8.11421041,7.19865271 7.65736877,7.65673281 C7.42894795,7.88518708 7.12790102,8 6.82919687,8" id="el_1a6YOCoUkl_"/>
                    </g>
                    <g id="el_P2DoW9BAsGa">
                        <polygon id="el_RbU4nkPeqPQ" points="2 2 4 2 4 0 2 0"/>
                        <polygon id="el_kdefw7L6N15" points="0 4 2 4 2 2 0 2"/>
                        <polygon id="el_TX3IWwN8nza" points="2 6 4 6 4 4 2 4"/>
                        <polygon id="el_-6geq_LZcNt" points="4 4 6 4 6 2 4 2"/>
                    </g>
                    <g id="el_rWgI6cRSj_W">
                        <polygon id="el_P-fAo4ZtfBD" points="2 2 4 2 4 0 2 0"/>
                        <polygon id="el_O1_M_P3xXUR" points="0 4 2 4 2 2 0 2"/>
                        <polygon id="el_5hAVmTkpmUd" points="4 4 6 4 6 2 4 2"/>
                        <polygon id="el_CQjBovVeqqd" points="2 6 4 6 4 4 2 4"/>
                    </g>
                </g>
                <g id="el_GOjVXFw_Nad">
                    <path d="M1.1,11 C0.4917,11 0,10.5071014 0,9.89977996 C0,9.29245849 0.4917,8.79955991 1.1,8.79955991 C8.6713,8.79955991 8.7978,1.40938188 8.8,1.09581916 C8.8033,0.48959792 9.295,0 9.9,0 C9.9011,0 9.9022,0 9.9033,0 C10.5094,0.00110022004 11,0.49179836 11,1.0980196 C11,4.5230046 8.9309,11 1.1,11" id="el_sxAwdfodUYW"/>
                    <path d="M18.9,11 C11.0691,11 9,4.5243 9,1.1 C9,0.4928 9.4917,0 10.1,0 C10.7072,0 11.1978,0.4906 11.2,1.0978 C11.2022,1.4113 11.3287,8.8 18.9,8.8 C19.5083,8.8 20,9.2928 20,9.9 C20,10.5072 19.5083,11 18.9,11 L18.9,11 Z" id="el_5hMq1HDJytn"/>
                    <path d="M10.1,20 C10.0989,20 10.0978,20 10.0967,20 C9.4906,19.9977998 9,19.5071507 9,18.9009901 C9,15.4763476 11.0691,9 18.9,9 C19.5083,9 20,9.49284928 20,10.10011 C20,10.7073707 19.5083,11.20022 18.9,11.20022 C11.3287,11.20022 11.2022,18.589659 11.2,18.9031903 C11.1967,19.5093509 10.705,20 10.1,20" id="el_UROi5vCpNex"/>
                    <path d="M9.9,20 C9.2928,20 8.8022,19.5094 8.8,18.9022 C8.7978,18.5887 8.6713,11.2 1.1,11.2 C0.4917,11.2 0,10.7072 0,10.1 C0,9.4928 0.4917,9 1.1,9 C8.9309,9 11,15.4757 11,18.9 C11,19.5072 10.5083,20 9.9,20" id="el_GA-RpZxV6k3"/>
                </g>
            </g>
        </g>
    </g>
</svg>