<svg xmlns="http://www.w3.org/2000/svg" viewBox="0 0 16 12" fill="#29146b" fill-rule="evenodd"><path d="M9.75 1c-.407 0-.75.356-.75.778v8.444c0 .422.343.778.75.778s.75-.356.75-.778V1.778c0-.422-.32-.778-.75-.778zm-3-1C6.343 0 6 .35 6 .764v10.473c0 .415.343.764.75.764s.75-.35.75-.764V.764C7.5.35 7.157 0 6.75 0zm-3 2c-.407 0-.75.36-.75.8v5.4c0 .43.343.8.75.8s.75-.36.75-.8V2.8c0-.43-.343-.8-.75-.8zm-3 1C.343 3 0 3.38 0 3.833v3.333C0 7.62.343 8 .75 8s.75-.38.75-.833V3.833C1.5 3.38 1.18 3 .75 3zm12 0c-.407 0-.75.38-.75.833v3.333c0 .452.343.833.75.833s.75-.38.75-.833V3.833c0-.452-.343-.833-.75-.833z" fill-rule="nonzero"/><rect x="14.5" y="4" width="1.5" height="3" rx=".75"/></svg>