<svg xmlns="http://www.w3.org/2000/svg" x="0px" y="0px" viewBox="0 0 100 100" enable-background="new 0 0 100 100">
    <g>
        <path fill="#24d2fd"
              d="M75.731,3.324H22.648c-11.559,0-20.965,9.346-20.965,20.828v51.555c0,11.488,9.406,20.828,20.965,20.828   h53.083c11.559,0,20.961-9.34,20.961-20.828V24.152C96.692,12.67,87.29,3.324,75.731,3.324z M85.824,75.707   c0,5.53-4.529,10.029-10.093,10.029H22.648c-5.566,0-10.098-4.499-10.098-10.029V24.152c0-5.53,4.531-10.032,10.098-10.032h53.083   c5.563,0,10.093,4.502,10.093,10.032V75.707z"/>
    </g>
</svg>