<svg width="52px" height="39px" viewBox="0 0 52 39" version="1.1" xmlns="http://www.w3.org/2000/svg"
     xmlns:xlink="http://www.w3.org/1999/xlink">
    <g id="Page-1" stroke="none" stroke-width="1" fill="none" fill-rule="evenodd" opacity="0.800000012">
        <g id="Mobile" transform="translate(-35.000000, -499.000000)" fill-rule="nonzero" fill="#767676">
            <path d="M60.999999,499 C58.7800613,499 56.9555547,500.811005 56.9555547,503.014706 C56.9555547,504.11656 57.4136169,505.118292 58.1472213,505.846508 L50.7444437,517.603857 L41.8069151,513.624973 C41.8804662,513.347959 41.9333329,513.063201 41.9333329,512.764679 C41.9333329,510.877767 40.3675551,509.323531 38.4666663,509.323531 C36.5657777,509.323531 35,510.877767 35,512.764679 C35,514.123772 35.8213689,515.307881 36.9861111,515.865352 L43.6666661,531.350671 L43.6666661,536.852941 C43.6667239,537.453541 44.2171728,537.999943 44.8222217,538 L77.1777769,538 C77.7828258,537.999943 78.3332741,537.453541 78.3333324,536.852941 L78.3333324,531.350671 L85.0138889,515.865352 C86.1786317,515.307881 87,514.123772 87,512.764679 C87,510.877767 85.4342228,509.323531 83.5333323,509.323531 C81.6324429,509.323531 80.0666657,510.877767 80.0666657,512.764679 C80.0666657,513.063201 80.1192435,513.347959 80.1930829,513.624973 L71.2555548,517.603857 L63.8527767,505.846508 C64.5863811,505.118292 65.0444433,504.116543 65.0444433,503.014706 C65.0444433,500.811034 63.2199945,499 60.999999,499 L60.999999,499 Z M60.999999,501.294118 C61.9709545,501.294118 62.7333323,502.05089 62.7333323,503.014706 C62.7333323,503.978523 61.9709545,504.735295 60.999999,504.735295 C60.0291012,504.735295 59.2666657,503.978494 59.2666657,503.014706 C59.2666657,502.050919 60.0291012,501.294118 60.999999,501.294118 Z M60.1694435,506.939799 C60.4373012,506.996005 60.7162523,507.029413 60.999999,507.029413 C61.2935101,507.029625 61.5800301,506.985882 61.8305545,506.939799 L69.8472215,519.682902 C70.1420615,520.141037 70.7914832,520.334431 71.2916659,520.113049 L81.5111101,515.542741 C81.7919095,515.745369 82.0977856,515.914216 82.4319717,516.026628 L76.4013586,529.970644 L45.5986394,529.970644 L39.5680263,516.026628 C39.9022129,515.914216 40.208089,515.745369 40.488889,515.542741 L50.7083326,520.113049 C51.2085148,520.334431 51.857937,520.141152 52.152777,519.682902 L60.1694435,506.939799 Z M38.4666663,511.61762 C39.1185152,511.61762 39.6222218,512.117623 39.6222218,512.764679 C39.6222218,513.411793 39.1185152,513.911738 38.4666663,513.911738 C37.8148177,513.911738 37.311111,513.411793 37.311111,512.764679 C37.311111,512.117623 37.8148177,511.61762 38.4666663,511.61762 Z M83.5333323,511.61762 C84.1851806,511.61762 84.6888878,512.117623 84.6888878,512.764679 C84.6888878,513.411793 84.1851806,513.911738 83.5333323,513.911738 C82.8814828,513.911738 82.3777768,513.411793 82.3777768,512.764679 C82.3777768,512.117623 82.8814828,511.61762 83.5333323,511.61762 Z M45.9777772,532.264762 L76.0222214,532.264762 L76.0222214,535.705882 L45.9777772,535.705882 L45.9777772,532.264762 Z"
                  id="Shape"></path>
        </g>
    </g>
</svg>