<svg xmlns="http://www.w3.org/2000/svg" viewBox="0 0 16 16" fill="#29146b" fill-rule="evenodd"><path d="M15.515 7.725c-.254 0-.458.203-.458.458v4.163c0 1.132-.922 2.05-2.05 2.05H2.966c-1.132 0-2.05-.922-2.05-2.05v-4.23c0-.254-.203-.458-.458-.458S0 7.86 0 8.115v4.23a2.97 2.97 0 0 0 2.966 2.966h10.04a2.97 2.97 0 0 0 2.966-2.966V8.183a.46.46 0 0 0-.458-.458zm-7.85 3.953a.46.46 0 0 0 .322.136c.115 0 .234-.044.322-.136l2.908-2.908c.18-.18.18-.468 0-.647s-.468-.18-.647 0l-2.125 2.13V.966c0-.254-.203-.458-.458-.458S7.53.712 7.53.966v9.285L5.4 8.122c-.18-.18-.468-.18-.647 0s-.18.468 0 .647l2.912 2.908z"/></svg>