<svg xmlns="http://www.w3.org/2000/svg" viewBox="0 0 14 16" fill="none" fill-rule="evenodd"><path stroke="#b1aac9" d="M.5 3.5h13v9H.5z"/><g fill="#b1aac9"><path d="M3.633 7.402l-3.42 3.346v2.15h13.3v-.657l-2.13-2.1-2.613 1.463z"/><ellipse cx="9.003" cy="7.074" rx="1.703" ry="1.672"/></g><g fill="#29146b"><path d="M9 12v1H0V3h9v1H1v8h8z" fill-rule="nonzero"/><path d="M9 11.48v1.417H.214v-2.15L3.634 7.4l5.13 4.212L9 11.48zm0-2.733c-.94-.002-1.7-.75-1.7-1.672s.76-1.67 1.7-1.672v3.345zM9.003 0H10l-.003 16H9z"/></g></svg>