<svg xmlns="http://www.w3.org/2000/svg" width="141" height="94" fill-rule="evenodd"><path d="M2.278 82.528c-1.11.94-2.11 2.067-2.035 3.866.163 3.824 5.908 4.737 8.258 5.1 4.163.645 8.333.542 12.516.72 14.1.598 28.17.433 42.227 1.118 9.678.472 19.392.348 29.05-.37 10.99-.817 21.98-3.77 30.42-10.308 3.063-2.373 10.402-8.055 8.518-11.964-1.694-3.516-7.498-3.985-11.088-4.84-11.907-2.833-24.188-3.33-36.3-3.74-12.325-.42-24.687-.144-36.964 1.348-15.4 1.87-31.85 7.833-44.428 18.926l-.175.144" fill-opacity=".08" fill="#3a2a63"/><g fill="#9385b7"><path d="M33.382 67.81h94.51V3.455h-94.51z"/><path d="M33.382 3.455L10.237 23.1v64.354l23.145-13.98V3.455"/></g><g fill="#5d7183"><path d="M33.003 3.372L11.694 21.46c-.413.35.516.37.758.166L33.76 3.538c.413-.35-.516-.37-.758-.166m.85 75.378V9.408c0-.86.195-1.98 0-2.825-.01-.037 0-.085 0-.124 0-.397-.942-.203-.942.114v69.343c0 .86-.195 1.98 0 2.824.01.037 0 .086 0 .125 0 .397.942.203.942-.114"/><path d="M43.504 3.127h-9.78c-.527 0-.732.657-.1.657h9.78c.527 0 .732-.657.1-.657m36.446 0H53.398c-.526 0-.732.657-.1.657H79.86c.526 0 .732-.657.1-.657m45.322 0H89.234c-.527 0-.732.657-.1.657h36.048c.526 0 .732-.657.1-.657"/></g><path d="M86.516 67.25l4.386 1.72c2.533.956 5.095 1.763 7.798 1.966 1.3.097 3.65.256 3.513-1.733-.11-1.595-1.86-1.182-2.914-1.947-4.36-3.16-2.467-11.932-2.577-16.458-.142-5.877-.548-11.76-1.51-17.564-.95-5.714-3.172-11.045-4.766-16.583-1.413-4.907-2.516-9.885-4.18-14.714-.244-.71-1.157-.9-1.68-.362-.665.684-1.456 1.39-1.733 1.71l-3.14 3.623c-.793.96-1.476 2.176-2.554 2.85-.914.572-1.848.2-2.962.196-5.586-.016-11.166.01-16.753-.067-1.318-.018-2.316-1.54-3.088-2.405-2.138-2.395-4.308-4.747-6.513-7.08a.41.41 0 0 0-.671.121c-2.79 6.676-4.468 13.598-6.498 20.496-2.08 7.067-3.132 14.42-3.066 21.787.055 6.11 1.326 12.084 1.493 18.176.037 1.343.07 3.06-1.27 3.88-1.11.678-4.196-.555-3.7 1.866.342 1.673 5.066 2.046 6.42 2.22 2.053.263 4.154-.067 6.26-.642l39.705-1.057" fill="#fff"/><g fill="#5d7183"><path d="M92.45 21.417c-1.993-6.06-3.333-12.3-5.3-18.363-.298-.92-.48-2.037-1.658-2.05-.98-.012-1.545.762-2.2 1.382C81.332 4.27 79.724 6.46 78 8.546c-.65.788-1.282 1.273-2.37 1.237-.803-.027-1.596-.098-2.404-.1l-4.76-.004-9.9-.047c-.818-.01-1.487-.02-2.15-.55-.478-.382-.863-.87-1.255-1.335-.92-1.092-1.897-2.138-2.86-3.192L49.04 1.03c-.54-.578-1.168-1.438-2.037-.8-.417.3-.544.947-.724 1.396-.344.86-.67 1.726-.986 2.597-.584 1.62-1.12 3.254-1.63 4.898-1.07 3.462-2.017 6.96-3.018 10.444-.098.34.85.2.942-.115 1.662-5.786 3.176-11.63 5.36-17.25.12-.312.222-.76.4-1.035.302-.44.115-.413.555-.028.547.48 1.022 1.088 1.518 1.62l3.002 3.27 2.454 2.787c.584.638 1.25 1.206 2.13 1.334 1.426.206 2.992.052 4.432.06l4.95.017c2.955.004 5.93-.1 8.876.106 2.34.163 3.4-1.52 4.695-3.176.894-1.138 1.88-2.207 2.836-3.293a18.42 18.42 0 0 1 1.042-1.106c.483-.466 1.4-1.76 1.948-.683.38.746.56 1.686.807 2.485l.735 2.505 1.263 4.68c.883 3.34 1.83 6.65 2.9 9.932.1.334 1.047.07.94-.25m-35.178-3.068a1.46 1.46 0 1 1-2.922-.04 1.46 1.46 0 1 1 2.922.04m19.912-.057a1.46 1.46 0 1 1-2.922-.041 1.46 1.46 0 1 1 2.922.041M65.44 21.584l-.017.78c-.003.22.236.295.426.273.17-.02.52-.135.524-.36l.017-.78c.003-.22-.236-.295-.426-.273-.17.02-.52.135-.524.36"/><path d="M65.79 22.152l-1.557-.913c-.175-.103-.1-.37.103-.367l3.18.044c.204.003.27.274.09.37l-1.623.87c-.06.033-.134.03-.194-.004"/></g><path d="M53.354 30.6a4.11 4.11 0 0 1-.069-.001c-2.7-.037-4.84-2.24-4.803-4.92.037-2.657 2.2-4.786 4.87-4.786h.07c2.7.037 4.84 2.24 4.803 4.92-.037 2.657-2.2 4.786-4.87 4.786m25.157.157c-.023 0-.046 0-.07-.001-2.7-.037-4.84-2.24-4.803-4.92.037-2.658 2.2-4.786 4.87-4.786h.07c2.7.037 4.84 2.24 4.803 4.92-.037 2.657-2.2 4.786-4.87 4.786" fill="#ffe3ef"/><path d="M53.58 19.8h4.08c.386 0 .987-.58.353-.58h-4.08c-.386 0-.987.58-.353.58m19.893 0h4.08c.386 0 .987-.58.353-.58h-4.08c-.386 0-.987.58-.353.58" fill="#5d7183"/><path fill="#9385b7" d="M10.24 87.454h94.508V23.1H10.24z"/><path d="M104.748 23.94c-3.03 4.503-6.524 13.227-8.695 17.094-1.314 2.34-3.793 2.994-6.485 3l-79.33.174V86.96h94.508V23.94" fill="#a59ac2"/><path fill="#9385b7" d="M127.893 14.122L104.748 23.1v64.354l23.145-19.313v-54.02"/><path d="M127.893 31.2l-7.686 7.34a6.31 6.31 0 0 1-7.378-2.052l-8.08-10.71v61.687l23.145-19.313V31.2" fill="#a59ac2"/><path d="M104.278 25.976v59.202c0 .3.94.113.94-.25V25.724c0-.3-.94-.113-.94.25m23.137 4.712V67.86c.005.05-.005.54.08.178.055-.237-.055-.02-.23.13l-21.498 17.94c-.1.093-1.344.962-1.315 1.097-.026-.117.615-.115-.076-.115h-94.1l.443.337v-44.42c0-.515-.957-.396-.957.06v44.418c0 .248.225.337.443.337h93.078c.554 0 1.322.143 1.815-.158.52-.318 1-.825 1.455-1.214l21.45-17.9c.262-.236.344-.364.37-.7.144-2.012 0-4.086 0-6.102v-31.1c0-.515-.957-.396-.957.058" fill="#5d7183"/><path d="M104.748 23.1H10.24L.57 39.433c-.458.774.102 1.75 1.003 1.75H92.49a2.72 2.72 0 0 0 2.34-1.332l9.917-16.752" fill="#a59ac2"/><path d="M29.317 22.84H12.554c-.692 0-1.434-.077-2.123 0s-.844.62-1.164 1.16L.262 39.2c-.593 1.046-.165 2.146 1.13 2.236.165.01.336 0 .502 0H88.01c2.352 0 5.9.622 7.332-1.706 3.067-4.986 5.967-10.08 8.95-15.117l.897-1.514c.11-.183-.092-.27-.253-.27H42.445c-.348 0-1 .523-.368.523h62.487l-.253-.27-7.198 12.16c-.898 1.516-1.728 3.106-2.707 4.572-.743 1.114-1.58 1.097-2.673 1.097H4.235c-.75 0-1.532.064-2.28 0-1.873-.162-.713-1.877-.204-2.74l8.925-15.076-.622.254H28.95c.348 0 1-.523.368-.523" fill="#5d7183"/><path d="M127.893 3.455L104.748 23.1l12.92 12.442c.33.33.8.397 1.206.1l20.92-18.407c.394-.392.84-1.18.358-1.662l-12.26-12.108" fill="#a59ac2"/><path d="M127.514 3.373L104.37 23.018c-.07.06-.143.185-.058.268l12.554 12.09c.6.57 1.2.95 2.053.543.382-.182.69-.515 1.002-.8l19.88-17.493c.5-.44 1.106-1 1.025-1.72-.06-.546-.693-.986-1.058-1.347L128.33 3.27c-.24-.236-1.13.117-.873.37l11.93 11.784c.563.556.61 1.123-.036 1.776-1.037 1.045-2.237 1.968-3.34 2.94l-17.14 15.082c-.363.32-.406.395-.858.043-.554-.433-1.04-1.002-1.546-1.49l-11.28-10.86-.058.268 23.145-19.645c.413-.35-.517-.37-.758-.164" fill="#5d7183"/><path d="M33.986 19.824c1.416-.655 3.145-.74 4.576-.245.707.245 1.39.643 1.8 1.268s.477 1.507.02 2.096c-.06.077-.7.085-.826.11-.286.06-.598.125-.865.247-.46.21-.46.515-.424.967.028.35-.225.742-.457.99-.558.596-1.43.792-2.246.797-1.546.008-3.372-.645-4.095-2.15-.412-.857-.053-1.426.364-2.16.5-.864 1.26-1.505 2.154-1.92" fill="#fff"/><path d="M34.2 20.08c1.685-.723 5.254-.87 5.94 1.4.112.37.105 1.1-.092 1.214-.155.1-.662.074-.856.123-.6.147-1.176.358-1.376.975-.157.483.037.904-.386 1.34-.446.46-1.123.583-1.735.6-.888.01-1.8-.2-2.563-.686-.878-.555-1.632-1.53-1.2-2.597.44-1.06 1.237-1.854 2.258-2.36.577-.286.06-.743-.406-.513-2.1 1.035-4.16 3.65-1.905 5.6 1.516 1.32 4.5 1.783 6.125.386.48-.416.54-.8.74-1.338.45-1.216.936-.622 1.745-.988.846-.383.8-1.64.443-2.348-1.203-2.45-5.075-2.213-7.147-1.323-.594.255-.065.716.406.513m-5.914 14.797c.752-2.82 2.066-5.765 4.017-7.972.182-.206-.7-.092-.85.077-1.982 2.242-3.33 5.196-4.094 8.064-.05.182.865.064.927-.168m4.698-4.293c.427-.792.913-1.544 1.47-2.25.215-.27-.703-.166-.86.035a16.18 16.18 0 0 0-1.543 2.361c-.092.17.328.142.388.134.185-.027.45-.103.545-.28m-1.683 4.597c.297-1.3.7-2.533 1.258-3.738.097-.214-.812-.126-.934.143-.547 1.205-.96 2.45-1.258 3.738-.063.274.87.13.934-.143m4.145-1.852c.136-1.988.774-3.866 1.698-5.623.214-.407-.728-.322-.88-.034-.948 1.802-1.622 3.726-1.76 5.768-.027.398.92.222.943-.1" fill="#5d7183"/></svg>