<svg xmlns="http://www.w3.org/2000/svg" width="480" height="379"><g fill="none" fill-rule="evenodd" transform="matrix(-1 0 0 1 480 0)"><path fill="#FFCAEC" d="M148.2 16.6C164.5 2 190.1-1 213.3.2c73.1 3.7 139 39 196.2 79 20.6 14.4 41 30 54.4 50 27.3 40.5 19.2 96.7-18.8 130a194.2 194.2 0 0 1-44.6 27.9 275.3 275.3 0 0 1-91.9 28c-23.1 2.1-46.5.3-69.5-2.8-64.3-8.7-127.3-28-180.2-61-23.2-14.5-45-32.5-54.6-56-9.5-23.3-3.4-53 20.3-67 9.7-5.6 21.4-8.2 33-10.7 16.8-3.5 34-7 49.1-14.3 15.8-7.6 34.4-22 31.3-38.7-3.4-17.9-6-33.5 10.2-48z" opacity=".1"/><path stroke="#535461" stroke-width="2" d="M350 373s14-24.8 34.9-32a43 43 0 0 0 21.7-16.4A72.7 72.7 0 0 0 413 313"/><path fill="#6C63FF" d="M426.2 308.3A46 46 0 0 1 413 313s2.7-11 5-13.3a5.8 5.8 0 0 1 8.3.1 6 6 0 0 1 0 8.5zm-6.1 20.6c-3.3.7-14.1-3.3-14.1-3.3s8.4-7.8 11.7-8.5a6.1 6.1 0 0 1 7.2 4.7 6 6 0 0 1-4.8 7.1zm-23 21.7c-3.1-1-10.1-9.9-10.1-9.9s10.9-2.5 14-1.4a6 6 0 0 1 3.9 4.5 6 6 0 0 1-2 5.8 5.8 5.8 0 0 1-5.8 1zM375.9 363c-3.3-.5-11.9-8-11.9-8s10.6-4.4 13.9-3.9a6 6 0 0 1 4.7 3.9 6 6 0 0 1-1 6 6 6 0 0 1-5.7 2zM397 316c0 3.4 6 13 6 13s6-9.6 6-13a6 6 0 1 0-12 0zm-24.7 15c1 3.4 9.6 11 9.6 11s2.9-11.4 1.9-14.6a6 6 0 0 0-7.6-4.1c-3.1 1-5 4.5-4 7.8zM350 349c.4 3.3 7.6 12.1 7.6 12.1s4.7-10.4 4.3-13.7a6 6 0 1 0-12 1.6z"/><path fill="#000" d="M426.2 308.3A46 46 0 0 1 413 313s2.7-11 5-13.3a5.8 5.8 0 0 1 8.3.1 6 6 0 0 1 0 8.5zm-6.1 20.6c-3.3.7-14.1-3.3-14.1-3.3s8.4-7.8 11.7-8.5a6.1 6.1 0 0 1 7.2 4.7 6 6 0 0 1-4.8 7.1zm-23 21.7c-3.1-1-10.1-9.9-10.1-9.9s10.9-2.5 14-1.4a6 6 0 0 1 3.9 4.5 6 6 0 0 1-2 5.8 5.8 5.8 0 0 1-5.8 1zM375.9 363c-3.3-.5-11.9-8-11.9-8s10.6-4.4 13.9-3.9a6 6 0 0 1 4.7 3.9 6 6 0 0 1-1 6 6 6 0 0 1-5.7 2zM397 316c0 3.4 6 13 6 13s6-9.6 6-13a6 6 0 1 0-12 0zm-24.7 15c1 3.4 9.6 11 9.6 11s2.9-11.4 1.9-14.6a6 6 0 0 0-7.6-4.1c-3.1 1-5 4.5-4 7.8zM350 349c.4 3.3 7.6 12.1 7.6 12.1s4.7-10.4 4.3-13.7a6 6 0 1 0-12 1.6z" opacity=".3"/><path stroke="#535461" stroke-width="2" d="M350 372s2.8-28.2 19.3-43.2c7-6.2 11.7-14.5 13.5-23.7A70.7 70.7 0 0 0 384 292"/><path fill="#6C63FF" d="M394.5 282.3c-1.2 3-10.4 9.7-10.4 9.7s-2-11-.7-14.1a6 6 0 0 1 10.4-1.6 6 6 0 0 1 .7 6zm2.9 21c-2.8 2-14.4 2.7-14.4 2.7s4.5-10.9 7.3-12.9a6 6 0 0 1 6.1-.5c2 1 3.4 2.9 3.6 5a6.3 6.3 0 0 1-2.6 5.8zm-13 29.7c-3.3.3-13.4-5-13.4-5s9.1-6.7 12.4-7a6 6 0 0 1 1 12zm-14.1 19.9c-3.3.8-14.3-2.6-14.3-2.6s8-8.2 11.2-9a6.2 6.2 0 0 1 6 1.5 6 6 0 0 1 1.6 5.9 6 6 0 0 1-4.5 4.2zm.2-51.5c1.3 3.1 10.7 9.6 10.7 9.6s1.6-11.4.3-14.5a6 6 0 0 0-8-3 6.1 6.1 0 0 0-3 8zm-15.9 23.8c2.3 2.5 13.4 5.8 13.4 5.8s-1.9-11.3-4.1-13.9a6.2 6.2 0 0 0-6-2 6.1 6.1 0 0 0-4.6 4 6 6 0 0 0 1.3 6zm-12.7 25c1.8 2.8 12.1 7.8 12.1 7.8s0-11.3-1.7-14.1a6.1 6.1 0 0 0-10.6.2 5.9 5.9 0 0 0 .2 6z"/><ellipse cx="306.5" cy="368" fill="#6C63FF" opacity=".1" rx="66.5" ry="11"/><path fill="#B77B7F" d="M311 221.3v2.2L307.1 357H301l3-133.5.1-2.5z"/><path fill="#DDA2A6" d="M348 334h-4.7l-70.5-.2H269l2-5.8h76.5z"/><path fill="#000" d="M311 221.4v2.6h-7v-3z" opacity=".1"/><path fill="#B77B7F" d="M302 219h12v4h-12z"/><path fill="#000" d="M273 328l-.6 6H269l1.8-6z" opacity=".1"/><path fill="#DDA2A6" d="M284 219l-.2 2-15.6 154-7.2-.3 16.5-153.8.2-1.7z"/><path fill="#000" d="M348 334h-4.4l-.6-6h4.5z" opacity=".1"/><path fill="#DDA2A6" d="M356 374.7l-7.2.3-15.6-154-.2-2 6.3.2.2 1.7z"/><path fill="#FFF" d="M228 66h158v152H228z"/><path fill="#DDA2A6" d="M310 15.2V52h-6V15.2c0-1.1.5-2.2 1.5-2.8a3 3 0 0 1 3 0c1 .6 1.5 1.7 1.5 2.8z"/><path fill="#000" d="M304 49h6v3h-6z" opacity=".1"/><path fill="#DDA2A6" d="M313 51.5V64h-11V51.5c0-.4.2-.8.4-1 .3-.3.7-.5 1.1-.5h8c.8 0 1.5.7 1.5 1.5z"/><circle cx="307.5" cy="57.5" r="2.5" fill="#000" opacity=".1"/><circle cx="307.5" cy="56.5" r="2.5" fill="#B77B7F"/><path fill="#000" d="M302 62h11v2h-11zm-5 2h20v3h-20z" opacity=".1"/><path fill="#DDA2A6" d="M297 63h20v3h-20z"/><path fill="#000" d="M266.6 214h83.8c2 0 3.6 1.5 3.6 3.3v.7h-91v-.7c0-1.8 1.6-3.3 3.6-3.3zm10.6 4.2l6.8-.2-.2 2H277zm24.8-.2h12v2h-12zm37 2h-6.8l-.2-2 6.8.2z" opacity=".1"/><path fill="#DDA2A6" d="M266.6 215h83.8c2 0 3.6 1.5 3.6 3.3v.7h-91v-.7c0-.9.4-1.7 1-2.3.7-.7 1.7-1 2.6-1z"/></g></svg>