<svg viewBox="0 0 25 25" version="1.1" xmlns="http://www.w3.org/2000/svg" xmlns:xlink="http://www.w3.org/1999/xlink">
    <g id="inner" stroke="none" stroke-width="1" fill="none" fill-rule="evenodd">
        <g id="footer" transform="translate(-1127.000000, -681.000000)" fill="#D4D5D7">
            <g id="Group-18" transform="translate(0.000000, 526.000000)">
                <g id="Group-17" transform="translate(1127.000000, 155.000000)">
                    <path d="M24.1928894,22.8577366 C24.1928894,23.595168 23.595168,24.1935484 22.8577366,24.1935484 L16.6927049,24.1935484 L16.6927049,14.8244136 L19.8374971,14.8244136 L20.3086887,11.1735022 L16.6927049,11.1735022 L16.6927049,8.8419274 C16.6927049,7.78487653 16.986623,7.06457939 18.5023443,7.06457939 L20.4358775,7.06392038 L20.4358775,3.79787043 C20.1011008,3.75371681 18.9537657,3.65420641 17.6186129,3.65420641 C14.8310037,3.65420641 12.9225128,5.35576835 12.9225128,8.48079032 L12.9225128,11.1735022 L9.76981245,11.1735022 L9.76981245,14.8244136 L12.9225128,14.8244136 L12.9225128,24.1935484 L1.33515278,24.1935484 C0.59772141,24.1935484 0,23.595168 0,22.8577366 L0,1.33581179 C0,0.59772141 0.59772141,0 1.33515278,0 L22.8577366,0 C23.595168,0 24.1928894,0.59772141 24.1928894,1.33581179 L24.1928894,22.8577366" id="Facebook"></path>
                </g>
            </g>
        </g>
    </g>
</svg>