<svg viewBox="0 0 30 25" version="1.1" xmlns="http://www.w3.org/2000/svg" xmlns:xlink="http://www.w3.org/1999/xlink">
    <g id="inner" stroke="none" stroke-width="1" fill="none" fill-rule="evenodd">
        <g id="footer" transform="translate(-1253.000000, -681.000000)" fill="#D4D5D7">
            <g id="Group-18" transform="translate(0.000000, 526.000000)">
                <g id="Group-17" transform="translate(1127.000000, 155.000000)">
                    <path d="M154.441039,0.447267868 C153.28915,1.14646304 152.016336,1.65496863 150.655928,1.92705012 C149.572253,0.741053867 148.023482,0 146.308826,0 C143.022143,0 140.354814,2.73476783 140.354814,6.10749312 C140.354814,6.58654259 140.405975,7.05086399 140.508296,7.49813186 C135.558118,7.24310391 131.169932,4.81452466 128.230522,1.11468145 C127.717365,2.02006943 127.424355,3.07041252 127.424355,4.18896977 C127.424355,6.30670948 128.475473,8.17639769 130.07463,9.27170011 C129.099477,9.242244 128.179361,8.96473638 127.374744,8.51049206 L127.374744,8.58490751 C127.374744,11.5452472 129.428146,14.01491 132.155162,14.573801 C131.655958,14.7172058 131.128849,14.7892958 130.585461,14.7892958 C130.201756,14.7892958 129.827354,14.752088 129.464578,14.6807732 C130.222686,17.1062518 132.421042,18.8728436 135.027908,18.9201284 C132.99001,20.5588187 130.420352,21.5355215 127.630547,21.5355215 C127.149948,21.5355215 126.674774,21.5076157 126.209677,21.4518041 C128.845225,23.1819633 131.97765,24.1935484 135.340298,24.1935484 C146.297198,24.1935484 152.286867,14.8885164 152.286867,6.81676539 C152.286867,6.55088518 152.282216,6.28578014 152.272139,6.02532606 C153.435655,5.16412224 154.446465,4.08897401 155.24178,2.86421971 C154.175159,3.34947046 153.02637,3.6781387 151.82177,3.82541928 C153.051951,3.07041252 153.996097,1.87356401 154.441039,0.447267868"
                          id="Twitter"></path>
                </g>
            </g>
        </g>
    </g>
</svg>