<svg viewBox="0 0 29 25" version="1.1" xmlns="http://www.w3.org/2000/svg" xmlns:xlink="http://www.w3.org/1999/xlink">
    <g id="inner" stroke="none" stroke-width="1" fill="none" fill-rule="evenodd">
        <g id="footer" transform="translate(-1167.000000, -681.000000)" fill="#D4D5D7">
            <g id="Group-18" transform="translate(0.000000, 526.000000)">
                <g id="Group-17" transform="translate(1127.000000, 155.000000)">
                    <g id="Group-14" transform="translate(40.322581, 0.806452)">
                        <path d="M28.4151657,4.43829286 C28.4097449,4.43394346 28.4054084,4.42823487 28.3986325,4.42497282 L28.3888752,4.42007974 L19.8322619,0.129122871 C19.7745312,0.100036245 19.713819,0.0804639362 19.6522938,0.0646973541 C19.5750485,0.0448532077 19.496177,0.0326205147 19.4170344,0.0326205147 C19.0893516,0.0326205147 18.763295,0.197625951 18.5865794,0.485230156 L13.6604962,8.51422617 L19.8425612,18.5896158 L28.4414562,4.57529902 C28.469915,4.52854295 28.4563632,4.47091337 28.4151657,4.43829286" id="Fill-53"></path>
                        <polyline id="Fill-54" points="10.9471527 6.68530265 10.9471527 15.8247553 19.0467989 19.8865531 10.9471527 6.68530265"></polyline>
                        <path d="M20.2637515,20.4968286 L26.9309714,23.8401595 C27.7985583,24.2753715 28.5018973,23.9706415 28.5018973,23.1600217 L28.5018973,7.07022472 L20.2637515,20.4968286" id="Fill-55"></path>
                        <path d="M9.54101681,4.45134107 L1.18415722,0.260420442 C1.03319005,0.184849583 0.889540855,0.148967017 0.759443472,0.148967017 C0.393544583,0.148967017 0.136873288,0.433037332 0.136873288,0.909568684 L0.136873288,19.0057992 C0.136873288,19.4902138 0.490304512,20.0637912 0.922336237,20.2804458 L8.28286671,23.971457 C8.47150791,24.0660565 8.65120492,24.1109097 8.81355561,24.1109097 C9.27106474,24.1109097 9.59197162,23.7558898 9.59197162,23.1600217 L9.59197162,4.53370787 C9.59197162,4.49891265 9.57218598,4.46683581 9.54101681,4.45134107" id="Fill-56"></path>
                    </g>
                </g>
            </g>
        </g>
    </g>
</svg>