<svg viewBox="0 0 25 25" version="1.1" xmlns="http://www.w3.org/2000/svg" xmlns:xlink="http://www.w3.org/1999/xlink">
    <g id="inner" stroke="none" stroke-width="1" fill="none" fill-rule="evenodd">
        <g id="footer" transform="translate(-1212.000000, -681.000000)" fill="#D4D5D7">
            <g id="Group-18" transform="translate(0.000000, 526.000000)">
                <g id="Group-17" transform="translate(1127.000000, 155.000000)">
                    <path d="M106.801619,0 L88.3596717,0 C86.7713164,0 85.483871,1.28414601 85.483871,2.86920188 L85.483871,21.3243465 C85.483871,22.9087425 86.7713164,24.1935484 88.3596717,24.1935484 L106.801619,24.1935484 C108.389974,24.1935484 109.677419,22.9087425 109.677419,21.3243465 L109.677419,2.86920188 C109.677419,1.28414601 108.389974,0 106.801619,0 L106.801619,0 Z M102.873293,3.77985013 C102.873293,3.36279962 103.211817,3.02427603 103.628867,3.02427603 L105.896909,3.02427603 C106.31462,3.02427603 106.653143,3.36279962 106.653143,3.77985013 L106.653143,6.04855207 C106.653143,6.46560257 106.31462,6.80412616 105.896909,6.80412616 L103.628867,6.80412616 C103.211817,6.80412616 102.873293,6.46560257 102.873293,6.04855207 L102.873293,3.77985013 L102.873293,3.77985013 Z M97.6086905,7.48315301 C100.178302,7.48315301 102.261575,9.56180662 102.261575,12.1248195 C102.261575,14.6884923 100.178302,16.766486 97.6086905,16.766486 C95.0397386,16.766486 92.9564657,14.6884923 92.9564657,12.1248195 C92.9564657,9.56180662 95.0397386,7.48315301 97.6086905,7.48315301 L97.6086905,7.48315301 Z M107.409377,21.1692724 C107.409377,21.5863229 107.070854,21.9255063 106.653143,21.9255063 L88.508147,21.9255063 C88.0904366,21.9255063 87.751913,21.5863229 87.751913,21.1692724 L87.751913,9.8284022 L90.7761891,9.8284022 C90.3822347,10.3952477 90.2489369,11.4530515 90.2489369,12.1248195 C90.2489369,16.1732449 93.5510267,19.4674159 97.6086905,19.4674159 C101.667014,19.4674159 104.969104,16.1732449 104.969104,12.1248195 C104.969104,11.4530515 104.87342,10.411745 104.385101,9.8284022 L107.409377,9.8284022 L107.409377,21.1692724 L107.409377,21.1692724 Z" id="Instagram"></path>
                </g>
            </g>
        </g>
    </g>
</svg>