<svg xmlns="http://www.w3.org/2000/svg" viewBox="0 0 16 16"><path d="M2.594 14.34l-.765-.765L13.406 2l.765.765L2.594 14.34zm10.212-9.447l-.82.82c1.42.846 2.348 1.94 2.703 2.457-.464.655-1.83 2.266-3.986 3.058.846-.765 1.392-1.857 1.392-3.085a3.93 3.93 0 0 0-.546-2.02l-6.253 6.253c.792.246 1.693.4 2.703.4 3.43 0 6.375-1.932 8-4.642-.84-1.403-1.964-2.48-3.195-3.25zM4.014 10.6c-1.42-.846-2.348-1.94-2.703-2.457.464-.655 1.83-2.266 3.986-3.058-.846.737-1.392 1.83-1.392 3.058a3.93 3.93 0 0 0 .546 2.02l6.253-6.253c-.82-.246-1.72-.4-2.703-.4-3.43 0-6.375 1.932-8 4.642a9.71 9.71 0 0 0 3.195 3.249l.82-.792z" fill="#29146b" fill-rule="nonzero"/></svg>