<svg xmlns="http://www.w3.org/2000/svg" viewBox="0 0 16 16" fill-rule="nonzero"><g fill="#fff"><path d="M11.6 13.404c-.097-.286-1.183-.623-1.183-.623-.188-.086-.31-.27-.318-.477v-.328c.204-.183.356-.597.356-.597s.13-.288.13-.913c0-.007 0-.57-.205-.997-.07-.146-.218-.25-.375-.323a1.28 1.28 0 0 0-1.119.013c-.024.012-.048.027-.07.04l.1.04c.287.133.487.316.597.54.243.5.25 1.13.25 1.198 0 .638-.12.985-.16 1.083a2.52 2.52 0 0 1-.324.603l.01.134v.018c.006.022.02.04.04.05 1.267.4 1.394.777 1.436.9.033.115.053.234.06.354h.57c.142 0 .257-.115.257-.257v-.115c0-.117-.014-.233-.04-.347z"/><path d="M9.143 13.295c-.188-.086-.31-.27-.318-.477l-.01-.328c.204-.183.356-.597.356-.597s.13-.288.13-.913c0-.007 0-.57-.204-.997-.07-.146-.218-.25-.375-.323a1.28 1.28 0 0 0-1.119.013c-.147.066-.268.177-.347.317-.204.428-.204 1-.204.997 0 .573.136.906.136.906s.15.42.356.597c.015.014-.002.328-.002.328-.007.207-.13.392-.32.477 0 0-1.103.354-1.19.65a1.65 1.65 0 0 0-.031.319v.115c0 .142.115.257.257.257H10.1c.142 0 .257-.115.257-.257v-.115c0-.117-.014-.233-.04-.347-.097-.286-1.183-.623-1.183-.623z"/></g><path d="M15.212 15H.788C.352 15 0 14.64 0 14.198V1.806C0 1.36.352 1 .788 1h2.89a.93.93 0 0 1 .674.295l1.717 1.85c.174.2.42.295.674.295h8.466c.436 0 .788.36.788.802v9.95c0 .45-.352.8-.788.8z" fill="#29146b"/></svg>