<svg xmlns="http://www.w3.org/2000/svg" viewBox="0 0 16 12"><path d="M14.043 3.664h-1.2V2.4c0-.556-.434-1.01-.96-1.01H5.962c-.042 0-.08-.013-.117-.032L3.76.126A.91.91 0 0 0 3.294 0h-1.34C1.425 0 1 .452 1 1.008v10.616c0 .208.156.376.356.376h11.128v-.01c.15 0 .3-.104.338-.26l2.13-6.744c.096-.306.048-.648-.132-.9a.95.95 0 0 0-.778-.414zM1.954.758h1.34c.042 0 .08.01.117.032l2.085 1.232c.144.085.305.13.467.13h5.922a.25.25 0 0 1 .242.253v1.263H4.18c-.413 0-.775.278-.906.69L1.718 9.283V1.008c0-.14.105-.25.236-.25zm12.316 4l-2.05 6.488H1.852l2.1-6.646c.033-.104.123-.177.227-.177h9.863c.078 0 .15.038.194.107s.057.148.033.227z" fill="#29146b" fill-rule="nonzero"/></svg>