<svg xmlns="http://www.w3.org/2000/svg" width="22" height="15" viewBox="0 0 22 15">
    <g fill="#29146B" fill-rule="nonzero">
        <path d="M1.47 14.875h19.06c.328 0 .595-.196.595-.438v-14c0-.241-.267-.437-.596-.437H1.471C1.14 0 .875.196.875.438v14c0 .241.267.437.596.437zm16.081-7h2.383V10.5H17.55V7.875zM19.934 7H17.55V4.375h2.383V7zm-3.574 7H5.64V.875h10.72V14zM4.45 10.5H2.066V7.875H4.45V10.5zm0-3.5H2.066V4.375H4.45V7zm-2.383 4.375H4.45V14H2.066v-2.625zM17.551 14v-2.625h2.383V14H17.55zm2.383-10.5H17.55V.875h2.383V3.5zM4.449.875V3.5H2.066V.875H4.45z"/>
        <path d="M8.683 10.443a.409.409 0 0 0 .425-.005l4.218-2.625a.441.441 0 0 0 .205-.376.441.441 0 0 0-.205-.375L9.108 4.437a.409.409 0 0 0-.425-.005.44.44 0 0 0-.214.38v5.25a.44.44 0 0 0 .214.381zm.63-4.858l2.977 1.852L9.313 9.29V5.585z"/>
    </g>
</svg>
