<svg xmlns="http://www.w3.org/2000/svg" viewBox="0 0 16 16"><path d="M13.7 8.283a.96.96 0 0 0-.706-.291h-7.64v-3.33a2.57 2.57 0 0 1 .779-1.883c.52-.52 1.145-.78 1.88-.78s1.36.26 1.88.78a2.57 2.57 0 0 1 .779 1.883.64.64 0 0 0 .197.468.64.64 0 0 0 .467.198h.665a.64.64 0 0 0 .467-.198.64.64 0 0 0 .197-.468 4.49 4.49 0 0 0-1.365-3.293A4.47 4.47 0 0 0 8.01 0a4.47 4.47 0 0 0-3.286 1.368 4.49 4.49 0 0 0-1.365 3.293v3.33h-.332a.96.96 0 0 0-.706.291c-.194.194-.29.43-.29.708v5.994c0 .278.097.513.29.708a.96.96 0 0 0 .706.291h9.966a.96.96 0 0 0 .706-.291c.194-.194.29-.43.29-.708V9c0-.278-.097-.513-.29-.708z" fill="#29146b" fill-rule="nonzero"/></svg>