<svg xmlns="http://www.w3.org/2000/svg" viewBox="0 0 16 16"><path d="M14.163 7.59c-.2-.212-.465-.318-.765-.318h-.36V5.09A4.92 4.92 0 0 0 11.554 1.5 4.82 4.82 0 0 0 8 0C6.62 0 5.435.5 4.446 1.5a4.92 4.92 0 0 0-1.485 3.591v2.182H2.6c-.3 0-.555.106-.765.318s-.315.47-.315.773v6.545c0 .303.105.56.315.773S2.3 16 2.6 16H13.4c.3 0 .555-.106.765-.318a1.06 1.06 0 0 0 .315-.773V8.364c0-.303-.105-.56-.315-.773zm-3.284-.318H5.12V5.09c0-.803.28-1.49.844-2.057A2.76 2.76 0 0 1 8 2.182a2.76 2.76 0 0 1 2.036.852c.562.568.843 1.254.843 2.057v2.182z" fill="#29146b" fill-rule="nonzero"/></svg>