<svg width="52px" height="39px" viewBox="0 0 51 39" version="1.1" xmlns="http://www.w3.org/2000/svg"
     xmlns:xlink="http://www.w3.org/1999/xlink">
    <g id="Page-1" stroke="none" stroke-width="1" fill="none" fill-rule="evenodd" opacity="0.800000012">
        <g id="Mobile" transform="translate(-36.000000, -347.000000)" fill-rule="nonzero" fill="#767676">
            <path d="M36,347 L36,348.181818 L36,374.181818 L36,375.363636 L37.1860465,375.363636 L85.8139535,375.363636 L87,375.363636 L87,374.181818 L87,348.181818 L87,347 L85.8139535,347 L37.1860465,347 L36,347 Z M38.372093,349.363636 L84.627907,349.363636 L84.627907,373 L38.372093,373 L38.372093,349.363636 Z M57.2561773,352.872159 C56.6726069,352.918309 56.1728958,353.484914 56.1813227,354.090909 L56.1813227,368.272727 C56.1889134,369.108805 57.2227842,369.722523 57.9233285,369.306818 L69.7837936,362.215909 C70.4870184,361.795241 70.4870184,360.54993 69.7837936,360.129261 L57.9233285,353.038352 C57.7236398,352.915691 57.4878952,352.856967 57.2561773,352.872159 Z M58.5163517,356.177557 L66.8742733,361.181818 L58.5163517,366.167614 L58.5163517,356.177557 Z M47.2674419,380.090909 C46.0543001,380.090909 45.0209334,380.823932 44.5617733,381.863636 L39.5581395,381.863636 C38.9031038,381.863636 38.372093,382.392736 38.372093,383.045455 C38.372093,383.698173 38.9031038,384.227273 39.5581395,384.227273 L44.5617733,384.227273 C45.0209334,385.266977 46.0543001,386 47.2674419,386 C48.4805836,386 49.5139503,385.266977 49.9731105,384.227273 L83.4418605,384.227273 C84.0968962,384.227273 84.627907,383.698173 84.627907,383.045455 C84.627907,382.392736 84.0968962,381.863636 83.4418605,381.863636 L49.9731105,381.863636 C49.5139503,380.823932 48.4805836,380.090909 47.2674419,380.090909 Z"
                  id="Shape"></path>
        </g>
    </g>
</svg>