<svg width="52px" height="39px" viewBox="0 0 41 39" version="1.1" xmlns="http://www.w3.org/2000/svg"
     xmlns:xlink="http://www.w3.org/1999/xlink">
    <g id="Page-1" stroke="none" stroke-width="1" fill="none" fill-rule="evenodd" opacity="0.800000012">
        <g id="Mobile" transform="translate(-46.000000, -665.000000)" fill-rule="nonzero" fill="#767676">
            <g id="Group-3" transform="translate(46.000000, 665.000000)">
                <path d="M0,35.4465494 C0.00358774655,37.3895047 1.60669675,38.9637038 3.58533409,38.9672269 L36.7007836,38.9672269 C38.6794209,38.9637038 40.2825299,37.3895047 40.2861176,35.4465494 L40.2861176,19.5074824 C40.2861176,18.977187 39.8483334,18.5472977 39.3082993,18.5472977 C38.7682651,18.5472977 38.3304809,18.977187 38.3304809,19.5074824 L38.3304809,35.4465494 C38.3304809,36.3303751 37.6008405,37.0468574 36.7007836,37.0468574 L3.59185288,37.0468574 C2.69179591,37.0468574 1.96215557,36.3303751 1.96215557,35.4465494 L1.96215557,14.4505094 C1.96215557,13.5666837 2.69179591,12.8502015 3.59185288,12.8502015 L12.65297,12.8502015 C13.1930041,12.8502015 13.6307883,12.4203121 13.6307883,11.8900167 C13.6307883,11.3597213 13.1930041,10.9298319 12.65297,10.9298319 L3.59185288,10.9298319 C1.61321554,10.933355 0.0101065358,12.5075541 0.00651878926,14.4505094 L0,35.4465494 Z"
                      id="Shape"></path>
                <path d="M30.4824527,16.2959832 C30.8101515,16.7220743 31.4259249,16.8059236 31.8584725,16.4833545 L40.3766905,10.1127285 C40.8088088,9.78960051 40.8938442,9.18241594 40.5667123,8.7559015 L34.0732092,0.356496059 C33.7387918,-0.0476403093 33.1399797,-0.118309694 32.7182864,0.196593547 C32.2965932,0.511496787 32.2032886,1.09901054 32.5071676,1.52595174 L37.5984409,8.13563771 C24.6389157,7.42996174 13.2970261,16.643863 11.5195891,29.3215227 C11.4457501,29.8513342 11.8210907,30.3399888 12.3583059,30.4134454 L12.4959079,30.4134454 C12.9864369,30.4113143 13.4002745,30.0528784 13.4656743,29.5735048 C15.0927447,18.0109683 25.3643411,9.56090537 37.1921875,10.0545788 L30.6724745,14.932695 C30.4630424,15.0879948 30.3251734,15.3193299 30.2894934,15.5753123 C30.2538133,15.8312947 30.3232765,16.0907282 30.4824527,16.2959832 Z"
                      id="Shape"></path>
            </g>
        </g>
    </g>
</svg>