<svg xmlns="http://www.w3.org/2000/svg" viewBox="0 0 16 16"><path d="M11.394 0c-.402 0-.727.326-.727.727s.326.727.727.727h2.12L10.62 4.348C9.5 3.452 8.087 2.91 6.545 2.91A6.56 6.56 0 0 0 0 9.455 6.56 6.56 0 0 0 6.545 16a6.56 6.56 0 0 0 6.545-6.545c0-1.543-.54-2.962-1.44-4.083l2.894-2.894v2.13c0 .402.326.727.727.727S16 5.008 16 4.606V.727A.73.73 0 0 0 15.273 0h-3.88zM6.545 4.364a5.08 5.08 0 0 1 5.091 5.091 5.08 5.08 0 0 1-5.091 5.091 5.08 5.08 0 0 1-5.091-5.091 5.08 5.08 0 0 1 5.091-5.091z" fill="#412d7b" fill-rule="nonzero"/></svg>