<svg viewBox="0 0 64 64" version="1.1" xmlns="http://www.w3.org/2000/svg" id="el_R7M6uUc9x"><style>@-webkit-keyframes kf_el_Izvt3Ryko__an_dIm1RfxQo{0%{opacity: 1;}50%{opacity: 0.56;}100%{opacity: 1;}}@keyframes kf_el_Izvt3Ryko__an_dIm1RfxQo{0%{opacity: 1;}50%{opacity: 0.56;}100%{opacity: 1;}}#el_R7M6uUc9x *{-webkit-animation-duration: 3s;animation-duration: 3s;-webkit-animation-iteration-count: infinite;animation-iteration-count: infinite;-webkit-animation-timing-function: cubic-bezier(0, 0, 1, 1);animation-timing-function: cubic-bezier(0, 0, 1, 1);}#el_doPHtK0WZ2{stroke: none;stroke-width: 1;fill: none;}#el_UEMS0scgmb{-webkit-transform: translate(-62px, -55px);transform: translate(-62px, -55px);fill: url(#linearGradient-1);}#el_pBCK_qCuMH{-webkit-transform: translate(46px, 55px);transform: translate(46px, 55px);}#el_Izvt3Ryko_{-webkit-animation-fill-mode: backwards;animation-fill-mode: backwards;opacity: 1;-webkit-animation-name: kf_el_Izvt3Ryko__an_dIm1RfxQo;animation-name: kf_el_Izvt3Ryko__an_dIm1RfxQo;-webkit-animation-timing-function: cubic-bezier(0, 0, 1, 1);animation-timing-function: cubic-bezier(0, 0, 1, 1);}</style>
    <defs>
        <linearGradient x1="-93.9845451%" y1="-83.0798682%" x2="183.477315%" y2="142.525878%" id="linearGradient-1">
            <stop stop-color="#29146B" offset="0%"/>
            <stop stop-color="#29146B" stop-opacity="0.334298514" offset="2.06360594%"/>
            <stop stop-color="#29146B" offset="100%"/>
        </linearGradient>
    </defs>
    <g id="el_doPHtK0WZ2" fill-rule="evenodd">
        <g id="el_UEMS0scgmb" fill-rule="nonzero">
            <g id="el_KWxbRLU5JK">
                <g id="el_pBCK_qCuMH">
                    <path d="M55.68,51.4056225 C55.84,51.4912985 56,51.4912985 56.08,51.4912985 C56.24,51.4912985 56.4,51.4056225 56.56,51.3199465 L63.52,46.8647925 C63.76,46.6934404 63.92,46.3507363 63.92,46.0937082 C63.92,45.751004 63.76,45.4939759 63.52,45.3226238 L56.56,40.8674699 C56.32,40.6961178 55.92,40.6961178 55.68,40.8674699 C55.44,41.038822 55.2,41.3815261 55.2,41.6385542 L55.2,50.5488621 C55.2,50.9772423 55.36,51.2342704 55.68,51.4056225 Z M56.96,43.352075 L61.36,46.1793842 L56.96,49.0066934 L56.96,43.352075 L56.96,43.352075 Z M38.32,12.4230254 L46.96,12.4230254 C47.44,12.4230254 47.84,11.9946452 47.84,11.480589 C47.84,10.9665328 47.44,10.5381526 46.96,10.5381526 L38.32,10.5381526 C37.84,10.5381526 37.44,10.9665328 37.44,11.480589 C37.44,12.0803213 37.84,12.4230254 38.32,12.4230254 Z M38.32,19.9625167 L55.28,19.9625167 C55.76,19.9625167 56.16,19.5341365 56.16,19.0200803 C56.16,18.5060241 55.76,18.0776439 55.28,18.0776439 L38.32,18.0776439 C37.84,18.0776439 37.44,18.5060241 37.44,19.0200803 C37.44,19.5341365 37.84,19.9625167 38.32,19.9625167 Z M26,49.4350736 C28.16,49.4350736 29.84,47.5502008 29.84,45.3226238 C29.84,43.0093708 28.08,41.210174 26,41.210174 C23.92,41.210174 22.16,43.0950469 22.16,45.3226238 C22.16,47.5502008 23.92,49.4350736 26,49.4350736 Z M26,43.0093708 C27.2,43.0093708 28.16,44.0374833 28.16,45.3226238 C28.16,46.6077644 27.2,47.6358768 26,47.6358768 C24.8,47.6358768 23.84,46.6077644 23.84,45.3226238 C23.92,44.0374833 24.88,43.0093708 26,43.0093708 Z M79.2,24.9317269 L63.92,24.9317269 L63.92,11.3092369 C63.92,11.0522088 63.84,10.7951807 63.68,10.6238286 L53.76,0.257028112 C53.6,0.0856760375 53.36,0 53.12,0 L31.2,0 C30.72,0 30.32,0.428380187 30.32,0.942436412 L30.32,35.8982597 L16.88,35.8982597 C16.4,35.8982597 16,36.3266399 16,36.8406961 L16,63.0575636 C16,63.5716198 16.4,64 16.88,64 L46.88,64 C47.36,64 47.76,63.5716198 47.76,63.0575636 L47.76,59.9732262 L79.12,59.9732262 C79.6,59.9732262 80,59.5448461 80,59.0307898 L80,25.8741633 C80,25.3601071 79.68,24.9317269 79.2,24.9317269 Z M53.76,2.91298527 L61.12,10.6238286 L53.76,10.6238286 L53.76,2.91298527 L53.76,2.91298527 Z M32.08,1.88487282 L52,1.88487282 L52,11.480589 C52,11.9946452 52.4,12.4230254 52.88,12.4230254 L62.16,12.4230254 L62.16,24.9317269 L38.32,24.9317269 C37.84,24.9317269 37.44,25.3601071 37.44,25.8741633 L37.44,35.5555556 C37.44,35.6412316 37.44,35.8125837 37.52,35.8982597 L32.08,35.8982597 L32.08,1.88487282 Z M46.08,62.2008032 L17.76,62.2008032 L17.76,60.7443106 L23.84,54.2329317 L26.96,57.5742972 C27.28,57.9170013 27.84,57.9170013 28.16,57.5742972 L38.08,46.9504685 L46.08,55.5180723 L46.08,62.2008032 Z M46.08,52.8621151 L38.72,44.9799197 C38.4,44.6372155 37.84,44.6372155 37.52,44.9799197 L27.6,55.6037483 L24.48,52.2623829 C24.16,51.9196787 23.6,51.9196787 23.28,52.2623829 L17.84,58.0883534 L17.84,37.7831325 L46.08,37.7831325 L46.08,52.8621151 Z M78.32,58.1740295 L47.76,58.1740295 L47.76,36.8406961 C47.76,36.3266399 47.36,35.8982597 46.88,35.8982597 L39.12,35.8982597 C39.12,35.8125837 39.2,35.6412316 39.2,35.5555556 L39.2,33.3279786 L78.32,33.3279786 L78.32,58.1740295 Z M78.32,31.5287818 L39.2,31.5287818 L39.2,26.8165997 L78.32,26.8165997 L78.32,31.5287818 Z" id="el_Izvt3Ryko_"/>
                </g>
            </g>
        </g>
    </g>
</svg>