<svg viewBox="0 0 7 16" version="1.1" xmlns="http://www.w3.org/2000/svg" xmlns:xlink="http://www.w3.org/1999/xlink">
    <g stroke="none" stroke-width="1" fill="none" fill-rule="evenodd">
        <g transform="translate(-147.000000, -414.000000)" fill="#412D7B" fill-rule="nonzero">
            <path d="M153.992205,423.085174 C153.992205,423.085174 153.992205,423.085174 153.992205,423.085174 L153.592053,420.023134 C153.482921,419.198738 152.919071,418.525762 152.155146,418.189274 C152.718996,417.75184 153.064581,417.095689 153.064581,416.37224 C153.064581,415.059937 151.918693,414 150.499974,414 C149.081255,414 147.935367,415.076761 147.935367,416.389064 C147.935367,417.112513 148.299141,417.768665 148.844802,418.206099 C148.080876,418.542587 147.517027,419.215563 147.407894,420.039958 L147.007743,423.0347 C146.971366,423.337539 147.062309,423.640379 147.298762,423.87592 C147.517027,424.111462 147.844423,424.246057 148.17182,424.246057 L148.31733,424.246057 L148.59016,429.024185 C148.626537,429.57939 149.117632,430 149.699671,430 L151.300277,430 C151.900504,430 152.391599,429.562566 152.409788,429.024185 L152.682618,424.229232 L152.882694,424.229232 C153.210091,424.229232 153.50111,424.094637 153.719374,423.87592 C153.937639,423.674027 154.028582,423.371188 153.992205,423.085174 Z M150.499974,414.790747 C151.445786,414.790747 152.227901,415.514196 152.227901,416.389064 C152.227901,417.263933 151.445786,417.987382 150.499974,417.987382 C149.554161,417.987382 148.772047,417.263933 148.772047,416.389064 C148.772047,415.514196 149.554161,414.790747 150.499974,414.790747 Z M153.08277,423.371188 C153.046392,423.404837 152.991826,423.45531 152.864505,423.45531 L152.264278,423.45531 C152.046014,423.45531 151.864127,423.623554 151.845938,423.825447 L151.554919,428.973712 C151.554919,429.108307 151.427598,429.226078 151.282088,429.226078 L149.681482,429.226078 C149.535973,429.226078 149.408652,429.125131 149.408652,428.973712 L149.117632,423.825447 C149.099444,423.623554 148.917557,423.45531 148.699292,423.45531 L148.153631,423.45531 C148.02631,423.45531 147.953555,423.388013 147.917178,423.354364 C147.880801,423.320715 147.826235,423.236593 147.844423,423.118822 L148.244575,420.12408 C148.353707,419.350158 149.063066,418.761304 149.917935,418.761304 L151.100201,418.761304 C151.95507,418.761304 152.66443,419.350158 152.773562,420.12408 L153.173713,423.169295 C153.173713,423.270242 153.119147,423.337539 153.08277,423.371188 Z" id="Shape"></path>
        </g>
    </g>
</svg>