<svg xmlns="http://www.w3.org/2000/svg" xmlns:xlink="http://www.w3.org/1999/xlink" viewBox="0 0 99 112"><defs><path id="A" d="M.12.328H128v36H.12z"/></defs><g transform="translate(-7)" fill="none" fill-rule="evenodd" opacity=".76"><mask fill="#fff" transform="translate(0 47)"><use xlink:href="#A"/></mask><path d="M76 97.328c0 6.628-5.374 12-12 12s-12-5.372-12-12h24" fill="#dee7f0"/><path d="M52 97.328c0 1.402.242 2.748.684 4h16.632c-1.32 3.736-4.44 6.626-8.316 7.622a11.96 11.96 0 0 0 3 .378c6.626 0 12-5.372 12-12H52" fill="#a3bfdc"/><path d="M52 97.328c0 6.628 5.374 12 12 12a11.96 11.96 0 0 0 3-.378c-5.176-1.332-9-6.03-9-11.622h-6" fill="#fff"/><path d="M52 97.328c0 1.402.242 2.748.684 4h6c-.444-1.252-.684-2.598-.684-4h-6" fill="#ffedb0"/><path d="M76 97.328c0 6.628-5.374 12-12 12s-12-5.372-12-12h24z" stroke="#000" stroke-width="4" stroke-linejoin="round"/><path d="M99.328 81.548C97.25 80.16 96 77.826 96 75.328v-16c0-14.9-10.2-27.44-24-30.992v-5.008a8 8 0 1 0-16 0v5.008c-13.802 3.552-24 16.082-24 30.992v16c0 2.498-1.25 4.832-3.328 6.22L26 83.328h76l-2.672-1.78" fill="#dee7f0"/><path d="M64 15.328a8 8 0 0 1 8 8v5.008c13.8 3.552 24 16.082 24 30.992v16a7.48 7.48 0 0 0 3.328 6.22l2.672 1.78h-8l-2.672-1.78A7.48 7.48 0 0 1 88 75.328v-16c0-12.652-7.342-23.586-17.996-28.78A3.57 3.57 0 0 1 68 27.344v-4.016c0-3.728-2.548-6.86-6-7.748.638-.164 1.308-.252 2-.252" fill="#a3bfdc"/><path d="M64 15.328a8 8 0 0 0-8 8v5.008c-13.802 3.552-24 16.082-24 30.992v16c0 2.498-1.25 4.832-3.328 6.22L26 83.328h8l2.672-1.78C38.75 80.16 40 77.826 40 75.328v-16c0-12.652 7.342-23.586 17.998-28.78A3.57 3.57 0 0 0 60 27.344v-4.016c0-3.728 2.548-6.86 6-7.748-.638-.164-1.308-.252-2-.252" fill="#fff"/><path d="M96 65.328v-6c0-14.9-10.2-27.44-24-30.992v-5.008a8 8 0 1 0-16 0v5.008c-5.476 1.4-10.384 4.232-14.312 8.054M34.3 47.418c-1.478 3.68-2.3 7.702-2.3 11.9v16c0 2.498-1.25 4.832-3.328 6.22L26 83.328h76l-2.672-1.78C97.25 80.16 96 77.826 96 75.328v-2M37.998 40.672c-.4.556-.782 1.126-1.146 1.708M72 28.336a32.17 32.17 0 0 0-2.896-.604M56 28.336a32.32 32.32 0 0 1 2.896-.604" stroke="#000" stroke-width="4" stroke-linecap="round" stroke-linejoin="round"/><path d="M104 87.328a6 6 0 0 0-6-6H30a6 6 0 0 0-6 6v4a6 6 0 0 0 6 6h68a6 6 0 0 0 6-6v-4" fill="#dee7f0"/><path d="M104 87.328a6 6 0 0 0-6-6h-8a6 6 0 0 1 6 6v4a6 6 0 0 1-6 6h8a6 6 0 0 0 6-6v-4" fill="#a3bfdc"/><path d="M104 87.328a6 6 0 0 0-6-6H30a6 6 0 0 0-6 6v4a6 6 0 0 0 6 6h8a6 6 0 0 1-6-6v-3a3 3 0 0 1 3-3h63a6 6 0 0 1 6 6v-4" fill="#fff"/><path d="M104 87.328a6 6 0 0 0-6-6h-8c2.614 0 4.834 1.67 5.656 4H98a6 6 0 0 1 6 6v-4" fill="#c3daf0"/><g stroke-width="4" stroke-linejoin="round" stroke-linecap="round"><path d="M40 81.328H30a6 6 0 0 0-6 6v4a6 6 0 0 0 6 6h68a6 6 0 0 0 6-6v-4a6 6 0 0 0-6-6H48" stroke="#000"/><path d="M80 69.328v-2m0-5.868c0-6.222-1.184-11.968-3.182-16.596" stroke="#fff"/></g><g fill-rule="nonzero"><path d="M16.634 9.693c.91 0 1.366.384 1.366 1.153 0 .36-.114.642-.34.847s-.57.307-1.024.307H8.488c-.407 0-.74-.13-1-.393s-.4-.573-.4-.933c0-.376.146-.736.44-1.08l6.268-7.288h-5.44c-.455 0-.797-.098-1.024-.294S7 1.53 7 1.153s.114-.663.34-.86S7.91 0 8.366 0h7.878c.423 0 .76.127 1.012.38s.378.57.378.945c0 .393-.138.753-.415 1.08l-6.293 7.288h5.707z" fill="#a3bfdc"/><path d="M26.882 33.078c.745 0 1.118.32 1.118.96 0 .3-.093.535-.28.706s-.466.256-.838.256h-6.665c-.333 0-.605-.11-.818-.327s-.32-.477-.32-.777c0-.314.12-.613.36-.9l5.13-6.074h-4.45c-.373 0-.652-.082-.838-.245s-.28-.402-.28-.716.093-.552.28-.716.466-.245.838-.245h6.446c.346 0 .622.106.828.317s.31.474.31.787c0 .327-.113.627-.34.9l-5.15 6.074h4.67z" fill="#b7d1ec"/><path d="M17.38 50.847c.414 0 .62.192.62.577 0 .18-.052.32-.155.423s-.26.153-.466.153h-3.703c-.185 0-.336-.065-.455-.196a.67.67 0 0 1-.177-.466.87.87 0 0 1 .2-.54l2.85-3.644H13.62c-.207 0-.362-.05-.466-.147s-.155-.24-.155-.43.052-.33.155-.43.26-.147.466-.147h3.58a.59.59 0 0 1 .46.19c.115.127.172.284.172.472 0 .196-.063.376-.188.54l-2.86 3.644h2.594z" fill="#bed4eb"/></g></g></svg>