<svg xmlns="http://www.w3.org/2000/svg" viewBox="0 0 15 16" fill="#412d7b" fill-rule="nonzero"><path d="M14.267 8.206c-.063-.13-.063-.282 0-.413l.582-1.216c.324-.677.067-1.484-.585-1.837l-1.17-.634c-.126-.068-.213-.2-.238-.334l-.23-1.333a1.36 1.36 0 0 0-1.53-1.136l-1.313.2a.45.45 0 0 1-.385-.128l-.953-.94C7.916-.1 7.085-.1 6.554.424l-.953.94a.45.45 0 0 1-.385.128l-1.313-.2c-.73-.106-1.403.393-1.53 1.136l-.23 1.333c-.025.144-.1.266-.238.334l-1.17.634a1.42 1.42 0 0 0-.585 1.85l.582 1.216c.063.13.063.282 0 .413L.15 9.423c-.324.677-.067 1.484.585 1.837l1.17.634c.126.068.213.2.238.334l.23 1.333c.116.676.684 1.15 1.336 1.15a1.43 1.43 0 0 0 .195-.014l1.313-.2a.45.45 0 0 1 .385.128l.953.94a1.34 1.34 0 0 0 1.892 0l.953-.94a.45.45 0 0 1 .385-.128l1.313.2c.73.106 1.403-.393 1.53-1.136l.23-1.333c.025-.144.1-.266.238-.334l1.17-.634c.652-.353.9-1.16.585-1.837l-.582-1.216zm-.424 2.24l-1.17.634a1.38 1.38 0 0 0-.702.987l-.23 1.333a.46.46 0 0 1-.518.384l-1.313-.2c-.42-.06-.833.077-1.137.377l-.953.94a.45.45 0 0 1-.64 0l-.953-.94c-.257-.254-.592-.4-.943-.4-.064 0-.13.005-.194.014l-1.313.2a.46.46 0 0 1-.518-.384l-.23-1.333a1.38 1.38 0 0 0-.702-.987l-1.17-.634c-.22-.12-.308-.393-.198-.622L1.542 8.6c.186-.388.186-.832 0-1.22L.96 6.174c-.1-.23-.023-.502.198-.622l1.17-.634a1.38 1.38 0 0 0 .702-.987l.23-1.333a.46.46 0 0 1 .518-.384l1.313.2c.418.06.833-.077 1.137-.377l.953-.94a.45.45 0 0 1 .64 0l.953.94c.304.3.718.438 1.137.377l1.313-.2a.46.46 0 0 1 .518.384l.23 1.333a1.38 1.38 0 0 0 .702.987l1.17.634c.22.12.308.393.198.622L13.458 7.4c-.186.388-.186.832 0 1.22l.582 1.216c.1.23.023.502-.198.622zM10.8 4.642c-.176-.18-.46-.18-.637 0L4.2 10.708c-.176.18-.176.47 0 .65.088.1.203.135.318.135s.23-.045.318-.135l5.942-6.067c.176-.18.176-.47 0-.65zm-5.1-.778c-.9 0-1.65.756-1.65 1.685S4.8 7.234 5.7 7.234s1.65-.756 1.65-1.685S6.6 3.864 5.7 3.864zm0 2.45a.76.76 0 0 1-.75-.766.76.76 0 0 1 .75-.766.76.76 0 0 1 .75.766.76.76 0 0 1-.75.766zm3.6 2.452c-.9 0-1.65.756-1.65 1.685s.74 1.685 1.65 1.685 1.65-.756 1.65-1.685-.74-1.685-1.65-1.685zm0 2.45a.76.76 0 0 1-.75-.766.76.76 0 0 1 .75-.766.76.76 0 0 1 .75.766.76.76 0 0 1-.75.766z"/></svg>