<svg width="40px" height="33px" viewBox="0 0 40 33" version="1.1" xmlns="http://www.w3.org/2000/svg" xmlns:xlink="http://www.w3.org/1999/xlink">
    <g id="inprogress" stroke="none" stroke-width="1" fill="none" fill-rule="evenodd">
        <g fill="#A8ADBC" fill-rule="nonzero" id="Shape">
            <path d="M24.3765943,18.174918 L22.1471706,17.908116 C21.9181113,17.0569525 21.5836327,16.2539435 21.1541465,15.5081993 L22.5376126,13.7460045 C22.7510542,13.4739966 22.7263262,13.0549222 22.4816492,12.8115467 L20.1832474,10.5118434 C19.9398719,10.2684679 19.5207975,10.2437399 19.2500911,10.4545786 L17.4852934,11.8432506 C16.7421521,11.4137644 15.9391431,11.0792858 15.0892811,10.8528294 L14.8237805,8.62080275 C14.7834348,8.27981675 14.4684783,8 14.1248894,8 L10.8725077,8 C10.5289187,8 10.2139622,8.27981675 10.1736165,8.62080275 L9.90551304,10.8515279 C9.055651,11.0779843 8.25134052,11.4137644 7.50819928,11.8432506 L5.74210006,10.4571815 C5.47269509,10.2450414 5.05231923,10.2684679 4.8102452,10.5118434 L2.51054193,12.8141496 C2.26716643,13.0575251 2.24243844,13.4765995 2.45457858,13.747306 L3.84064761,15.5095008 C3.40985996,16.2539435 3.07798428,17.0582539 2.85022646,17.9094175 L0.620802749,18.1762195 C0.279816753,18.2165652 0,18.5302202 0,18.8764121 L0,22.1274923 C0,22.4723827 0.279816753,22.7860378 0.620802749,22.825082 L2.85152793,23.094487 C3.07928575,23.9417461 3.41246291,24.7460565 3.84194909,25.4904992 L2.45718153,27.252694 C2.24504139,27.5260034 2.26976938,27.9450778 2.51314488,28.1884533 L4.8102452,30.4881566 C5.05231923,30.7328336 5.47269509,30.7575616 5.74210006,30.5467229 L7.50819928,29.1567494 C8.25134052,29.5862356 9.055651,29.9220157 9.90551304,30.1484721 L10.1736165,32.3791973 C10.2139622,32.7201832 10.5289187,33 10.8725077,33 L14.1248894,33 C14.4684783,33 14.7834348,32.7201832 14.8237805,32.3791973 L15.091884,30.1471706 C15.9417461,29.9207142 16.7460565,29.5849341 17.4904992,29.155448 L19.255297,30.5402155 C19.5260034,30.7510542 19.9450778,30.7289291 20.1871519,30.4868551 L22.4868551,28.1832474 C22.7302306,27.9385705 22.7562601,27.5194961 22.5428185,27.2500911 L21.1567494,25.4878963 C21.5875371,24.7434536 21.9194128,23.9391431 22.1471706,23.0879796 L24.3791973,22.8211776 C24.7214847,22.7808319 25,22.4684783 25,22.1222864 L25,18.8712062 C25,18.5276173 24.7201832,18.2165652 24.3765943,18.174918 Z M12.5006507,26.7451195 C9.0504451,26.7451195 6.25227758,23.9495549 6.25227758,20.4967463 C6.25227758,17.0452392 9.0504451,14.2470717 12.5006507,14.2470717 C15.9521578,14.2470717 18.7490239,17.0439377 18.7490239,20.4967463 C18.7503254,23.9495549 15.9521578,26.7451195 12.5006507,26.7451195 Z"></path>
            <path d="M39.5345687,7.73251228 L37.8375383,7.53137757 C37.6640232,6.88459143 37.4116376,6.27067045 37.0830105,5.70407528 L38.1385608,4.3631772 C38.3002453,4.15941327 38.2792132,3.83864942 38.095182,3.65328997 L36.3468858,1.90617865 C36.1628546,1.7195046 35.8434291,1.70110012 35.6370512,1.86279665 L34.2949381,2.91842524 C33.7296995,2.59108836 33.1171386,2.33868401 32.474344,2.16778523 L32.2692807,0.471943541 C32.2403615,0.21165156 31.9998064,0 31.7408483,0 L29.2669434,0 C29.0053563,0 28.7661157,0.21165156 28.735882,0.471943541 L28.5334477,2.16778523 C27.8867096,2.33868401 27.2754632,2.59240296 26.7089101,2.91973985 L25.366797,1.86542586 C25.1617337,1.70504394 24.8423081,1.72476302 24.6582769,1.90617865 L22.9086662,3.65723379 C22.722006,3.84259323 22.7049174,4.16072788 22.866602,4.36580641 L23.9221522,5.7080191 C23.5935251,6.27329966 23.342454,6.88590604 23.1676244,7.53269217 L21.4719085,7.73514149 C21.2116359,7.76537743 21,8.00595032 21,8.26755691 L21,10.7403307 C21,10.9993081 21.2129504,11.2411956 21.4719085,11.2688023 L23.1663099,11.4751955 C23.3411395,12.1193524 23.5948396,12.7306442 23.9208377,13.2972393 L22.8652874,14.6381374 C22.7049174,14.8432159 22.724635,15.1639798 22.9086662,15.3480246 L24.6543334,17.095136 C24.8396791,17.2831246 25.1577901,17.3002145 25.3628534,17.138518 L26.7049665,16.0815748 C27.2702052,16.4089116 27.8827661,16.6626306 28.5281897,16.8335294 L28.7319385,18.5320003 C28.7608577,18.7883484 29.0027272,19 29.2629999,19 L31.7355902,19 C31.9958629,19 32.2351034,18.7883484 32.2653371,18.5320003 L32.4677714,16.8335294 C33.1145096,16.6626306 33.725756,16.4089116 34.2909946,16.0815748 L35.6331077,17.1358887 C35.8394855,17.2975853 36.1575966,17.2791808 36.3429423,17.095136 L38.0912384,15.3440808 C38.2765841,15.1613506 38.2949873,14.8419013 38.1333027,14.6368228 L37.079067,13.2946101 C37.4076941,12.7306442 37.6574507,12.1180378 37.8309658,11.4725662 L39.5279961,11.2701169 C39.7882688,11.2372518 39.9999047,11.0006227 39.9999047,10.7377015 L39.9999047,8.2662423 C40.0051627,8.0020065 39.7922123,7.76537743 39.5345687,7.73251228 Z M30.5038959,14.2529579 C27.877508,14.2529579 25.7519479,12.1259254 25.7519479,9.50197191 C25.7519479,6.8767038 27.8801371,4.75098595 30.5038959,4.75098595 C33.1250256,4.75098595 35.2532148,6.8767038 35.2532148,9.50197191 C35.2532148,12.1246108 33.1263402,14.2529579 30.5038959,14.2529579 Z"></path>
        </g>
    </g>
</svg>