<svg xmlns="http://www.w3.org/2000/svg" viewBox="0 0 16 16" fill="#442e83" fill-rule="nonzero"><path d="M11.394 3.782H.795c-.44 0-.795.356-.795.797V15.2c0 .44.356.797.795.797h10.6c.44 0 .795-.357.795-.797V4.578c0-.44-.356-.797-.795-.797zm-.795 10.62h-9V5.375h9v9.028zm5.228-.98h-.862V4.126h.862c.064 0 .12-.038.145-.097s.01-.127-.034-.172l-1.392-1.395c-.062-.062-.16-.062-.223 0L12.93 3.857c-.045.045-.06.113-.034.172s.082.097.145.097h.862v9.296h-.862c-.064 0-.12.038-.145.097s-.01.127.034.172l1.392 1.395c.062.062.16.062.223 0l1.392-1.395c.045-.045.06-.113.034-.172s-.082-.097-.145-.097zM2.298 3.08c.045.045.113.06.172.034s.097-.082.097-.146v-.864h9.277v.864c0 .064.038.12.097.146s.127.01.172-.034l1.392-1.395c.062-.062.062-.162 0-.224L12.114.068C12.07.023 12 .01 11.942.034s-.097.082-.097.146v.864H2.568V.18c0-.064-.038-.12-.097-.146S2.344.024 2.3.068L.907 1.463c-.062.062-.062.162 0 .224l1.39 1.393z"/></svg>