<svg xmlns="http://www.w3.org/2000/svg" viewBox="0 0 32 32"><path d="M31.144 14.104a1.19 1.19 0 1 0-2.354.376l.004.02c1.214 7.145-3.595 13.922-10.74 15.136S4.13 26.042 2.917 18.897 6.512 4.975 13.657 3.76c4.394-.746 8.867.788 11.877 4.076l-5.28 1.76a1.19 1.19 0 1 0 .753 2.262l7.152-2.384a1.19 1.19 0 0 0 .815-1.131V1.192a1.19 1.19 0 1 0-2.384 0v4.354C20.452-.292 10.743-.05 4.905 6.09s-5.595 15.848.543 21.686 15.848 5.595 21.686-.543a15.34 15.34 0 0 0 4.01-13.128z" fill="#29146b" fill-rule="evenodd"/></svg>