<svg viewBox="0 0 16 16" xmlns="http://www.w3.org/2000/svg"><path d="M15.572 7.052c-.052-.325-.357-.546-.682-.495s-.546.357-.495.682c.61 3.583-1.796 6.972-5.368 7.58s-6.96-1.797-7.568-5.37 1.797-6.96 5.37-7.568a6.56 6.56 0 0 1 5.939 2.038l-2.64.88c-.312.104-.48.44-.377.754s.44.48.754.378l3.576-1.192c.243-.08.408-.31.408-.566V.596c0-.33-.267-.596-.596-.596s-.596.267-.596.596v2.177a7.67 7.67 0 0 0-10.843.272 7.67 7.67 0 0 0 .272 10.843 7.67 7.67 0 0 0 12.848-6.836z" fill="#29146B" fill-rule="evenodd"/></svg>