<svg width="26px" height="29px" viewBox="0 0 26 29" version="1.1" xmlns="http://www.w3.org/2000/svg" xmlns:xlink="http://www.w3.org/1999/xlink">    
    <g id="Page-1" stroke="none" stroke-width="1" fill="none" fill-rule="evenodd">
        <g id="Untitled-1" fill="#FF0083">
            <path d="M13.133,28.265 C6.072,28.265 0.328,22.515 0.328,15.456 C0.328,8.396 6.072,2.649 13.133,2.649 C13.602,2.649 14.076,2.676 14.547,2.729 L14.547,0.659 C14.547,0.393 14.711,0.151 14.953,0.048 C15.205,-0.05 15.484,0.005 15.676,0.196 L20.213,4.743 C20.471,5.001 20.471,5.413 20.213,5.675 L15.678,10.232 C15.485,10.42 15.205,10.478 14.953,10.375 C14.711,10.271 14.547,10.031 14.547,9.766 L14.547,7.47 C14.078,7.384 13.606,7.345 13.133,7.345 C8.66,7.345 5.02,10.984 5.02,15.456 C5.02,19.927 8.661,23.569 13.133,23.569 C17.605,23.569 21.244,19.926 21.244,15.456 C21.244,15.093 21.539,14.796 21.906,14.796 L25.275,14.796 C25.64,14.796 25.937,15.093 25.937,15.456 C25.937,22.515 20.189,28.265 13.133,28.265 Z" id="Path"></path>
        </g>
    </g>
</svg>