<?xml version="1.0" encoding="UTF-8"?>
<svg width="30px" height="30px" viewBox="0 0 30 30" version="1.1" xmlns="http://www.w3.org/2000/svg" xmlns:xlink="http://www.w3.org/1999/xlink">
    <!-- Generator: Sketch 41.2 (35397) - http://www.bohemiancoding.com/sketch -->
    <title>search</title>
    <desc>Created with Sketch.</desc>
    <defs></defs>
    <g id="inner" stroke="none" stroke-width="1" fill="none" fill-rule="evenodd">
        <g id="Desktop_storeo_home" transform="translate(-1204.000000, -35.000000)" fill="#d5d6d7">
            <path d="M1216.6184,57.9265419 C1210.72169,57.9265419 1205.94151,53.2286327 1205.94151,47.42423 C1205.94151,41.6198273 1210.72169,36.9125411 1216.6184,36.9125411 C1222.51511,36.9125411 1227.29622,41.6198273 1227.29622,47.42423 C1227.29622,53.2286327 1222.51511,57.9265419 1216.6184,57.9265419 L1216.6184,57.9265419 L1216.6184,57.9265419 Z M1225.96407,55.7379455 C1227.99089,53.5347732 1229.2368,50.6284608 1229.2368,47.4221419 C1229.2368,40.5594944 1223.58758,35 1216.6184,35 C1209.64922,35 1204,40.5594944 1204,47.4221419 C1204,54.2754141 1209.64922,59.8349086 1216.6184,59.8349086 C1219.62956,59.8349086 1222.39136,58.7942612 1224.56068,57.0598489 L1232.33421,64.7100133 C1232.71389,65.0850214 1233.32793,65.0850214 1233.70667,64.7100133 C1234.08635,64.3443804 1234.08635,63.7349924 1233.70667,63.3599843 L1225.96407,55.7379455 Z" id="search"></path>
        </g>
    </g>
</svg>