<svg xmlns="http://www.w3.org/2000/svg" viewBox="0 0 16 16" fill="#29146b" fill-rule="nonzero"><path d="M15.176 6.222H13.68a.56.56 0 0 1-.531-.355.56.56 0 0 1 .124-.626l1.058-1.058a.82.82 0 0 0 .241-.583.82.82 0 0 0-.241-.583l-1.35-1.35c-.3-.3-.854-.312-1.165 0l-1.056 1.06a.56.56 0 0 1-.626.125.56.56 0 0 1-.355-.531V.824C9.778.37 9.408 0 8.954 0H7.046c-.454 0-.824.37-.824.824V2.32a.56.56 0 0 1-.355.531.56.56 0 0 1-.626-.125L4.183 1.67c-.312-.312-.854-.3-1.165 0l-1.35 1.35a.82.82 0 0 0-.241.583.82.82 0 0 0 .241.583l1.06 1.054a.56.56 0 0 1 .124.626.56.56 0 0 1-.531.355H.824C.37 6.22 0 6.59 0 7.045v1.908c0 .455.37.824.824.824H2.32a.56.56 0 0 1 .531.355.56.56 0 0 1-.124.626l-1.057 1.06a.82.82 0 0 0 0 1.165l1.35 1.35c.3.3.854.312 1.165 0l1.058-1.058a.56.56 0 0 1 .626-.124.56.56 0 0 1 .355.531v1.497c0 .454.37.824.824.824h1.908c.454 0 .824-.37.824-.824V13.68a.56.56 0 0 1 .355-.531.56.56 0 0 1 .626.124l1.058 1.058c.312.312.854.3 1.165 0l1.35-1.35a.82.82 0 0 0 0-1.165l-1.058-1.058a.56.56 0 0 1-.124-.626.56.56 0 0 1 .531-.355h1.497c.454 0 .824-.37.824-.824V7.046c0-.454-.37-.824-.824-.824zm.23 2.732a.23.23 0 0 1-.23.23H13.68a1.15 1.15 0 0 0-1.079.721 1.15 1.15 0 0 0 .253 1.272l1.058 1.058c.1.1.1.237 0 .327l-1.35 1.35c-.1.1-.237.1-.327 0l-1.058-1.058a1.15 1.15 0 0 0-1.272-.253 1.15 1.15 0 0 0-.721 1.079v1.497a.23.23 0 0 1-.23.23H7.046a.23.23 0 0 1-.23-.23V13.68a1.15 1.15 0 0 0-.721-1.079 1.18 1.18 0 0 0-.454-.092 1.15 1.15 0 0 0-.818.345l-1.058 1.058c-.1.1-.237.1-.327 0l-1.35-1.35c-.1-.1-.1-.237 0-.327l1.058-1.058a1.15 1.15 0 0 0 .253-1.272 1.15 1.15 0 0 0-1.079-.72H.824a.23.23 0 0 1-.23-.23v-1.91a.23.23 0 0 1 .23-.23H2.32a1.15 1.15 0 0 0 1.079-.721 1.15 1.15 0 0 0-.253-1.272l-1.058-1.06c-.1-.1-.1-.237 0-.327l1.35-1.35c.1-.1.237-.1.327 0l1.058 1.058a1.15 1.15 0 0 0 1.272.253 1.15 1.15 0 0 0 .721-1.078V.824a.23.23 0 0 1 .23-.23h1.908a.23.23 0 0 1 .23.23V2.32a1.15 1.15 0 0 0 .721 1.079 1.15 1.15 0 0 0 1.272-.253l1.058-1.058c.1-.1.237-.1.327 0l1.35 1.35c.1.1.1.237 0 .327l-1.058 1.058a1.15 1.15 0 0 0-.253 1.272 1.15 1.15 0 0 0 1.079.721h1.497a.23.23 0 0 1 .231.231v1.908zM8 5.333A2.67 2.67 0 0 0 5.333 8 2.67 2.67 0 0 0 8 10.667 2.67 2.67 0 0 0 10.667 8 2.67 2.67 0 0 0 8 5.333zm0 4.74c-1.143 0-2.074-.93-2.074-2.074S6.857 5.926 8 5.926s2.074.93 2.074 2.074-.93 2.074-2.074 2.074z"/></svg>