<svg xmlns="http://www.w3.org/2000/svg" viewBox="0 0 16 16" fill-rule="nonzero"><path d="M15.212 15H.788C.352 15 0 14.64 0 14.198V1.806C0 1.36.352 1 .788 1h2.89a.93.93 0 0 1 .674.295l1.717 1.85c.174.2.42.295.674.295h8.466c.436 0 .788.36.788.802v9.95c0 .45-.352.8-.788.8z" fill="#29146b"/><path d="M11 6.063c-.762 0-1.387.625-1.387 1.388A1.39 1.39 0 0 0 11 8.838c.762 0 1.387-.625 1.387-1.388A1.39 1.39 0 0 0 11 6.063zm2.063 3.525c-.363-.363-.875-.575-1.412-.575h-1.3c-.537 0-1.05.213-1.412.575a2.97 2.97 0 0 0-.875 2.112.25.25 0 0 0 .25.25H13.7a.25.25 0 0 0 .25-.25c-.012-.812-.325-1.562-.887-2.112z" fill="#fff"/></svg>