
<svg xmlns="http://www.w3.org/2000/svg" xmlns:xlink="http://www.w3.org/1999/xlink" viewBox="0 0 16 16"><g fill="#29146b" fill-rule="nonzero"><path d="M3.472 14.765A3.47 3.47 0 0 1 0 11.308a3.47 3.47 0 0 1 3.472-3.457 3.47 3.47 0 0 1 3.472 3.457 3.47 3.47 0 0 1-3.472 3.457zm0-6.43C1.825 8.335.485 9.67.485 11.31s1.34 2.974 2.987 2.974S6.46 12.95 6.46 11.31 5.12 8.335 3.472 8.335zM6.7 5.338c-.134 0-.242-.108-.242-.24a1.84 1.84 0 0 0-1.842-1.834c-.775 0-1.472.488-1.734 1.213-.045.125-.184.2-.3.145s-.2-.183-.146-.3c.33-.916 1.212-1.532 2.2-1.532 1.283 0 2.327 1.04 2.327 2.317 0 .134-.108.242-.242.242z"/><path d="M6.7 11.55c-.134 0-.242-.108-.242-.24V5.1c0-.133.1-.24.242-.24s.242.108.242.24v6.2c0 .133-.1.24-.242.24zM.4 10.53a.23.23 0 0 1-.086-.016.24.24 0 0 1-.14-.31l2.2-5.794c.048-.125.187-.187.313-.14s.188.187.14.3l-2.2 5.794c-.037.097-.13.156-.227.156zm5.784-7.858c-.134 0-.242-.108-.242-.24 0-.393-.32-.713-.716-.713a.72.72 0 0 0-.674.472c-.045.125-.184.2-.3.145a.24.24 0 0 1-.146-.309c.17-.473.625-.8 1.13-.8a1.2 1.2 0 0 1 1.19 1.193c0 .134-.1.24-.242.24z"/><use xlink:href="#B"/><path d="M3.983 3.248a.23.23 0 0 1-.086-.016.24.24 0 0 1-.14-.31l.325-.853c.048-.125.187-.188.313-.14a.24.24 0 0 1 .14.31l-.325.854a.24.24 0 0 1-.226.155zm8.545 11.517a3.47 3.47 0 0 1-3.472-3.457 3.472 3.472 0 0 1 6.944 0 3.47 3.47 0 0 1-3.472 3.457zm0-6.43c-1.647 0-2.987 1.334-2.987 2.974s1.34 2.974 2.987 2.974 2.987-1.334 2.987-2.974-1.34-2.974-2.987-2.974zM9.3 5.338c-.134 0-.242-.108-.242-.24 0-1.278 1.044-2.317 2.327-2.317.98 0 1.86.616 2.2 1.532a.24.24 0 0 1-.146.309c-.127.046-.265-.02-.3-.145-.262-.726-.96-1.213-1.734-1.213a1.84 1.84 0 0 0-1.842 1.834.24.24 0 0 1-.242.241z"/><path d="M9.3 11.55c-.134 0-.242-.108-.242-.24V5.1c0-.133.1-.24.242-.24s.242.108.242.24v6.2a.24.24 0 0 1-.242.24zm6.3-1.02c-.098 0-.2-.06-.226-.155l-2.2-5.794a.24.24 0 0 1 .14-.31c.124-.046.265.015.313.14l2.2 5.794a.24.24 0 0 1-.14.31c-.03.01-.058.015-.086.015zM9.816 2.672c-.134 0-.242-.108-.242-.24a1.2 1.2 0 0 1 1.201-1.196c.505 0 .96.318 1.13.8a.24.24 0 0 1-.146.309c-.128.045-.265-.02-.3-.145a.72.72 0 0 0-.674-.472c-.395 0-.716.32-.716.713a.24.24 0 0 1-.242.241z"/><use xlink:href="#B" x="3.632"/><path d="M12.017 3.248c-.098 0-.2-.06-.226-.155l-.325-.853a.24.24 0 0 1 .14-.31c.124-.046.265.015.313.14l.325.853a.24.24 0 0 1-.14.31c-.03.01-.058.015-.086.015zM9.3 8.742H6.7c-.134 0-.242-.108-.242-.24s.1-.24.242-.24h2.355V6.247H6.7c-.134 0-.242-.108-.242-.24s.1-.24.242-.24h2.6c.134 0 .242.108.242.24V8.5a.24.24 0 0 1-.242.24z"/></g><defs ><path id="B" d="M6.184 3.707c-.134 0-.242-.108-.242-.24V2.43c0-.133.11-.24.242-.24s.242.108.242.24v1.035c0 .134-.11.24-.242.24z"/></defs></svg>