<svg xmlns="http://www.w3.org/2000/svg" viewBox="0 0 10 12" fill="#29146b" fill-rule="nonzero"><path d="M6.888 2.482c-.768 0-1.375.625-1.375 1.375 0 .768.625 1.375 1.375 1.375s1.375-.607 1.375-1.375a1.39 1.39 0 0 0-1.375-1.375zm0 2.054a.66.66 0 1 1 0-1.321.67.67 0 0 1 .661.661.67.67 0 0 1-.661.661zM8.424 1l-2.75.1a1.98 1.98 0 0 0-1.25.571L.442 5.643a1.5 1.5 0 0 0 0 2.125l2.536 2.536a1.52 1.52 0 0 0 1.054.446 1.45 1.45 0 0 0 1.054-.446l3.98-3.984a1.94 1.94 0 0 0 .571-1.25l.1-2.75a1.25 1.25 0 0 0-.375-.946C9.12 1.125 8.78 1 8.424 1zm.518 4.018a1.19 1.19 0 0 1-.357.786l-4 4c-.304.304-.804.304-1.107 0L.942 7.268c-.304-.304-.304-.804 0-1.107l3.982-3.98c.214-.214.482-.34.768-.357l2.75-.1c.16 0 .304.054.4.16s.16.25.16.4l-.07 2.714z"/></svg>