<?xml version="1.0" encoding="utf-8"?>
<!-- Generator: Adobe Illustrator 18.1.1, SVG Export Plug-In . SVG Version: 6.00 Build 0)  -->
<svg version="1.1" id="Layer_1" xmlns="http://www.w3.org/2000/svg" xmlns:xlink="http://www.w3.org/1999/xlink" x="0px" y="0px"
	 viewBox="0 0 595.3 841.9" enable-background="new 0 0 595.3 841.9" xml:space="preserve">
<path d="M402.9,337.3h-52.1l-91.2,256.1h39.1l26-76.9h104.2l26,76.9H494L402.9,337.3z M337.8,478l39.1-102.3l39.1,102.9L337.8,478
	L337.8,478z"/>
<g>
	<path d="M211.7,486.7c-11.7-8.4-22.8-17.2-33.3-26.2c-10.5-9-20.1-18.4-29.1-28.1c-8.9-9.7-17-19.8-24.3-30.2
		c-7.3-10.5-13.7-21.4-19.2-32.9l26.4-20c0.4,0.9,0.9,2,1.6,3.5c0.7,1.5,1.4,3,2.1,4.7s1.4,3.2,2.1,4.7c0.7,1.5,1.2,2.6,1.6,3.3
		c1.3,2.4,2.7,4.1,4,4.9c1.3,0.8,2.9,1.2,4.6,1.2c2.7,0,4.8-1.5,6.4-4.5c1.6-3,2.4-6.6,2.4-10.7v-58.7h-62V270H320v27.5h-38.5v177.5
		H246v-88h-62.9c-2.4,2.8-5.6,5.3-9.3,7.3c-3.8,2.1-8.4,3.4-13.8,3.9c9.9,13.1,20.8,25.1,32.7,36c11.9,10.9,24.9,21.5,39,31.8
		L211.7,486.7z M192.6,360.2H246v-62.7h-53.4V360.2z"/>
</g>
</svg>
