<svg viewBox="0 0 16 16" version="1.1" xmlns="http://www.w3.org/2000/svg" xmlns:xlink="http://www.w3.org/1999/xlink">    
    <g id="Page-1" stroke="none" stroke-width="1" fill="none" fill-rule="evenodd">
        <g id="asset-inspector-copy-2" transform="translate(-154.000000, -310.000000)">
            <g id="Group-2" transform="translate(154.000000, 310.000000)">
                <rect id="Rectangle" stroke="#29146B" stroke-width="0.941176471" x="0.470588235" y="0.470588235" width="6.58823529" height="6.58823529" rx="1.88235294"></rect>
                <rect id="Rectangle-Copy-8" stroke="#29146B" stroke-width="0.941176471" x="8.94117647" y="8.94117647" width="6.58823529" height="6.58823529" rx="1.88235294"></rect>
                <rect id="Rectangle-Copy-7" stroke="#29146B" stroke-width="0.941176471" x="0.470588235" y="8.94117647" width="6.58823529" height="6.58823529" rx="3.29411765"></rect>
                <path d="M10.2084841,6.58823529 L14.2621041,6.58823529 C14.3660636,6.58823529 14.4503394,6.50395948 14.4503394,6.4 C14.4503394,6.37366243 14.4448124,6.34761798 14.4341157,6.32355041 L12.4073057,1.7632279 C12.3650838,1.66822853 12.2538439,1.62544397 12.1588445,1.66766591 C12.1162596,1.68659255 12.0822092,1.72064296 12.0632825,1.7632279 L10.0364725,6.32355041 C9.99425059,6.41854978 10.0370351,6.52978964 10.1320345,6.57201159 C10.1561021,6.58270829 10.1821465,6.58823529 10.2084841,6.58823529 Z M11.6444343,0.388258072 C11.7094473,0.241978789 11.8264105,0.125015644 11.9726898,0.0600026292 C12.2990126,-0.0850297508 12.6811215,0.0619352168 12.8261539,0.388258072 L15.4118114,6.20598733 C15.4652949,6.32632521 15.4929299,6.45654744 15.4929299,6.58823529 C15.4929299,7.10803271 15.0715508,7.52941176 14.5517534,7.52941176 L9.9188348,7.52941176 C9.78714695,7.52941176 9.65692472,7.50177672 9.53658683,7.44829322 C9.06158996,7.2371835 8.84766715,6.6809842 9.05877687,6.20598733 L11.6444343,0.388258072 Z" id="Path-3" fill="#29146B" fill-rule="nonzero"></path>
            </g>
        </g>
    </g>
</svg>